<?xml version="1.0" encoding="UTF-8"?><svg id="a" xmlns="http://www.w3.org/2000/svg" xmlns:xlink="http://www.w3.org/1999/xlink" viewBox="0 0 1175.17 844.03"><defs><linearGradient id="b" x1="603.06" y1="686.68" x2="603.06" y2="804.44" gradientUnits="userSpaceOnUse"><stop offset="0" stop-color="#face09"/><stop offset="1" stop-color="#e52107"/></linearGradient><linearGradient id="c" x1="816.68" y1="686.68" x2="816.68" y2="804.44" xlink:href="#b"/><linearGradient id="d" x1="714.65" y1="686.68" x2="714.65" y2="804.44" xlink:href="#b"/><linearGradient id="e" x1="706.67" y1="828.08" x2="706.67" y2="752.85" gradientUnits="userSpaceOnUse"><stop offset="0" stop-color="#e51717"/><stop offset="1" stop-color="#000"/></linearGradient><linearGradient id="f" x1="224.78" y1="830.9" x2="224.78" y2="764.5" gradientUnits="userSpaceOnUse"><stop offset="0" stop-color="#fff"/><stop offset="1" stop-color="#979da5"/></linearGradient><linearGradient id="g" x1="1061.5" y1="835.44" x2="1061.5" y2="769.3" xlink:href="#f"/><linearGradient id="h" x1="336.11" y1="624.26" x2="484.02" y2="614.97" xlink:href="#f"/><linearGradient id="i" x1="163.81" y1="152.86" x2="173.39" y2="157.65" gradientUnits="userSpaceOnUse"><stop offset="0" stop-color="#fff"/><stop offset="1" stop-color="#e2d8cf"/></linearGradient><linearGradient id="j" x1="224.44" y1="146.46" x2="221.61" y2="174.68" xlink:href="#i"/><linearGradient id="k" x1="124.02" y1="217.01" x2="131.92" y2="201.96" gradientUnits="userSpaceOnUse"><stop offset="0" stop-color="#face09"/><stop offset="1" stop-color="#fff431"/></linearGradient><linearGradient id="l" x1="132.61" y1="191.78" x2="147.15" y2="182.37" gradientUnits="userSpaceOnUse"><stop offset="0" stop-color="#face09"/><stop offset=".99" stop-color="#f49000"/></linearGradient><linearGradient id="m" x1="593.99" y1="87.05" x2="524.12" y2="483" xlink:href="#i"/><linearGradient id="n" x1="473.97" y1="383.8" x2="622.8" y2="625.04" gradientUnits="userSpaceOnUse"><stop offset="0" stop-color="#fff"/><stop offset="1" stop-color="#707070"/></linearGradient><linearGradient id="o" x1="756.64" y1="566.52" x2="699.53" y2="588.13" xlink:href="#n"/><linearGradient id="p" x1="584.88" y1="590.72" x2="469.08" y2="448.47" xlink:href="#n"/><linearGradient id="q" x1="615.99" y1="615.28" x2="381.8" y2="561.48" gradientUnits="userSpaceOnUse"><stop offset="0" stop-color="#f3f3f3"/><stop offset="1" stop-color="#c8c8c8" stop-opacity="0"/></linearGradient><linearGradient id="r" x1="443.16" y1="532.72" x2="425.68" y2="432.06" gradientUnits="userSpaceOnUse"><stop offset="0" stop-color="#fff"/><stop offset="1" stop-color="#c8c8c8" stop-opacity="0"/></linearGradient><linearGradient id="s" x1="618.16" y1="459.24" x2="561.05" y2="409.63" xlink:href="#r"/><linearGradient id="t" x1="724.21" y1="581.88" x2="640.69" y2="412.35" xlink:href="#r"/><linearGradient id="u" x1="1017.38" y1="537.06" x2="759.34" y2="611.2" xlink:href="#b"/><linearGradient id="v" x1="815.05" y1="603.76" x2="756.17" y2="610.3" xlink:href="#b"/><linearGradient id="w" x1="232.13" y1="178.72" x2="236.13" y2="159.33" gradientTransform="translate(313.94 -111.49) rotate(71.01)" gradientUnits="userSpaceOnUse"><stop offset="0" stop-color="#e51717"/><stop offset="1" stop-color="#440100"/></linearGradient><linearGradient id="x" x1="171.79" y1="171.94" x2="174.56" y2="158.48" gradientTransform="translate(270.39 -55.17) rotate(71.01)" xlink:href="#w"/><linearGradient id="y" x1="895.52" y1="579.12" x2="794.41" y2="601.05" gradientUnits="userSpaceOnUse"><stop offset="0" stop-color="#e52107"/><stop offset=".99" stop-color="#333"/></linearGradient></defs><path d="m179.81,746.47c-4.66,2.31-9.37,3.95-14.12,4.91,3.73,3.37,7.38,8.14,10.94,14.3,3.56,6.16,5.6,13.67,6.1,22.53,0,9.24-1.46,16.85-4.39,22.82-2.92,5.97-5.28,9.92-7.06,11.84-6.1,8.28-13.59,14.2-22.44,17.76-8.86,3.56-17.95,4.33-27.28,2.31-6.19-1.54-11.36-3.76-15.51-6.64-4.15-2.89-7.25-5.49-9.28-7.8,2.88-4.14,5.72-8.33,8.52-12.56,3.22-4.81,6.44-9.58,9.66-14.3.68.58,2.18,1.54,4.51,2.89,2.33,1.35,5.26,2.43,8.77,3.25,3.52.82,7.44.7,11.76-.36,6.7-2.02,12.23-6.21,16.6-12.56,4.37-6.35,6.34-13.67,5.91-21.95-.43-4.43-1.48-8.3-3.18-11.62-1.7-3.32-3.56-6.09-5.6-8.3-3.22.1-6.91-.62-11.06-2.17-2.21-.77-3.69-2.02-4.45-3.76-.51-1.64-.38-3.3.38-4.98.76-1.68,1.74-2.96,2.92-3.83,3.9-2.41,8.82-.77,14.75,4.91,14.41-6.26,22.85-15.74,25.31-28.45.68-5.78.19-10.9-1.46-15.38-1.65-4.48-3.2-7.87-4.64-10.18-.68-1.16-1.4-2.26-2.16-3.32-11.36,14.83-20.92,29.32-28.68,43.47-7.76,14.15-14.56,27.49-20.41,40-7.72,16.75-15.58,31.19-23.59,43.32-8.01,12.13-18.29,20.94-30.84,26.43-2.54,1.25-6.76,2.55-12.65,3.9-5.89,1.35-12.87,1.3-20.92-.14-9.16-2.22-16.79-5.75-22.89-10.61-6.1-4.86-10.55-9.17-13.35-12.92,4.58-6.93,9.2-13.86,13.86-20.8,4.66-7.03,9.32-14.01,13.99-20.94,2.71,2.98,6.12,6.14,10.24,9.46,4.11,3.32,8.67,5.95,13.67,7.87,5,1.93,10.17,2.26,15.51,1.01,2.54-.67,4.73-1.59,6.55-2.74,1.82-1.16,3.2-2.17,4.13-3.03,7.12-6.35,13.99-14.54,20.6-24.55,6.61-10.01,13.31-21.03,20.09-33.07,5.85-10.3,12.06-20.72,18.63-31.26,6.57-10.54,13.8-20.58,21.68-30.11-10.68-7.8-22.72-12.42-36.12-13.86-13.4-1.44-26.15,1.11-38.28,7.65-1.53.67-4.81,2.82-9.85,6.43-5.04,3.61-9.71,8.35-13.99,14.23-4.28,5.87-6.08,12.61-5.4,20.22,1.27,7.99,5.42,14.83,12.46,20.51,7.04,5.68,15.94,8.91,26.7,9.68-7.72,13.67-15.43,27.39-23.14,41.16-1.02-.09-4.3-1.4-9.86-3.9-5.55-2.5-11.55-6.83-17.99-13-6.44-6.16-11.53-14.73-15.26-25.71-2.29-8.18-3.26-15.69-2.92-22.53.34-6.83,1.16-12.56,2.48-17.19,1.31-4.62,2.27-7.56,2.86-8.81,4.49-9.91,9.86-17.47,16.09-22.67,6.23-5.2,11.59-8.9,16.09-11.12.25-.19.51-.38.76-.58,16.87-9.15,35.24-12.95,55.13-11.41,19.88,1.54,37.53,7.13,52.97,16.75,3.14-3.08,6.36-6.02,9.66-8.81,4.32-3.47,7.29-5.73,8.9-6.79,1.86,2.12,3.73,4.28,5.6,6.5,1.86,2.12,3.73,4.24,5.6,6.35-3.22,2.98-8.06,8.09-14.5,15.31,6.1,6.45,10.3,13.67,12.59,21.66,1.86,6.84,2.29,14.32,1.27,22.46-1.02,8.14-3.81,15.52-8.39,22.17-3.73,4.82-7.93,8.38-12.59,10.69Zm220.12,34.23c2.8,12.32,1.78,23.49-3.05,33.5-4.75,8.57-11.85,14.56-21.3,17.98-9.45,3.42-18.46,2.43-27.02-2.96-5.34-4.14-9.07-8.81-11.19-14.01-.35-.85-.66-1.65-.96-2.43-.06.04-.12.08-.19.12-5.93,3.27-11.19,5.39-15.77,6.35-.68.87-2.82,2.82-6.42,5.85-3.6,3.03-8.06,5.58-13.35,7.65-5.3,2.07-10.79,2.09-16.47.07-.85-.29-2.06-.96-3.62-2.02-1.57-1.06-3.2-2.6-4.9-4.62-4.32-6.11-6.16-13.84-5.53-23.19-3.62,3.53-7.96,6.84-13.03,9.9-5.93,3.27-11.19,5.39-15.77,6.35-.68.87-2.82,2.82-6.42,5.85-3.6,3.03-8.06,5.58-13.35,7.65-5.3,2.07-10.79,2.09-16.47.07-.85-.29-2.06-.96-3.62-2.02-1.57-1.06-3.2-2.6-4.9-4.62-4.83-6.83-6.57-15.69-5.21-26.57,1.36-10.88,5.17-21.25,11.44-31.12,6.27-9.87,14.41-16.68,24.42-20.43h.13c1.78-.77,4.87-1.49,9.28-2.17,4.41-.67,8.77.24,13.1,2.74,5.51,3.76,8.69,10.25,9.54,19.5.85,9.24-1.14,19.83-5.98,31.77,2.29-.67,4.83-1.83,7.63-3.47,3.56-2.21,6.49-4.62,8.77-7.22,2.26-2.57,3.98-4.85,5.17-6.86,1.84-4.72,4.17-9.35,7.04-13.86,6.27-9.87,14.41-16.68,24.42-20.43h.13c1.78-.77,4.87-1.49,9.28-2.17,4.41-.67,8.77.24,13.1,2.74,5.51,3.76,8.69,10.25,9.54,19.5.85,9.24-1.14,19.83-5.98,31.77,2.29-.67,4.83-1.83,7.63-3.47,1.59-.99,3.04-2.03,4.38-3.09.62-.6,1.24-1.21,1.86-1.82,2.12-2.37,4.24-4.74,6.36-7.11.52-.74,1-1.46,1.39-2.13.11.07.22.13.33.2,2.73-3.05,5.46-6.1,8.19-9.15,2.8-3.08,5.6-6.11,8.39-9.1.34-4.33,1.1-7.99,2.29-10.98,1.19-2.98,2.12-5,2.8-6.06,3.05-5.39,6.38-9.36,9.98-11.91,3.6-2.55,6.38-4.16,8.33-4.84,2.54,4.72,5.09,9.44,7.63,14.15.68,1.25,1.36,2.5,2.03,3.76-1.87,1.06-3.75,2.53-5.66,4.4-1.91,1.88-3.24,4.26-4.01,7.15-.51,2.22-.47,4.31.13,6.28.59,1.97,1.36,4.07,2.29,6.28,1.19,2.41,2.25,5.15,3.18,8.23Zm-152.85-11.84c-1.19-1.06-2.48-1.56-3.88-1.52-1.4.05-2.52.22-3.37.51-5.17,1.44-9.66,4.84-13.48,10.18-3.82,5.34-6.42,11-7.82,16.97-1.4,5.97-1.08,10.59.95,13.86,1.53,1.93,3.52,3.03,5.98,3.32.93.19,2.12,0,3.56-.58.68-.29,1.23-.62,1.65-1.01-.85-4.43.17-8.18,3.05-11.27,3.05-2.69,6.4-3.27,10.05-1.73,6.27-14.63,7.38-24.21,3.31-28.74Zm79.1,0c-1.19-1.06-2.48-1.56-3.88-1.52-1.4.05-2.52.22-3.37.51-5.17,1.44-9.66,4.84-13.48,10.18-3.82,5.34-6.42,11-7.82,16.97-1.4,5.97-1.08,10.59.95,13.86,1.53,1.93,3.52,3.03,5.98,3.32.93.19,2.12,0,3.56-.58.68-.29,1.23-.62,1.65-1.01-.85-4.43.17-8.18,3.05-11.27,3.05-2.69,6.4-3.27,10.05-1.73,6.27-14.63,7.38-24.21,3.31-28.74Zm50.29,20.72c-.47-2.26-1.21-4.6-2.23-7-.43-1.16-.85-2.36-1.27-3.61-6.1,7.22-12.25,14.49-18.44,21.81,1.78,2.02,3.86,3.42,6.23,4.19,1.78.58,3.79.7,6.04.36,2.25-.34,4.3-1.42,6.17-3.25.93-.96,1.63-1.92,2.1-2.89.46-.96.78-1.73.95-2.31.76-2.6.91-5.03.44-7.29Zm81.45-42.97c3.31-7.02,5.63-12.03,7-15.01h-26.46c-2.29,5.01-4.57,10.02-6.87,15.01h-8.14c-1.09,2.31-2.16,4.62-3.17,6.93-1.11,2.31-2.16,4.62-3.18,6.93h8.14c-2.12,4.52-4.2,9.05-6.24,13.57-4.4,9.53-8.77,19.06-13.1,28.6-.34.57-.88,2.29-1.65,5.12-.76,2.85-1.14,6.11-1.14,9.82s1.02,7.21,3.06,10.48c1.09,1.54,2.22,2.72,3.37,3.54,1.14.82,2.05,1.37,2.73,1.65,4.91,2.03,10.09,1.79,15.51-.72,6.6-3.06,13.14-7.58,17.74-13.55,3.89-5.04,9.69-15.86,6.69-22.46,0-.01-.01-.02-.01-.04l-.02.09c-.25.26-.48.53-.73.8-4.5,4.87-8.9,8.55-13.22,11.05-.77.48-1.76.94-2.99,1.38s-2.19.36-2.86-.22c-.6-.77-.75-1.83-.45-3.17.3-1.35.66-2.61,1.08-3.75,1.35-3.67,3.79-9.44,7.31-17.33,3.52-7.89,7.27-16.18,11.26-24.84h8.4c1.09-2.31,2.2-4.62,3.31-6.93,1.01-2.31,2.08-4.62,3.17-6.93h-8.51Z" style="fill:#fff;"/><path d="m51.11,694.18s8.01-1.6,9.61,1.6c1.6,3.2,4.81,3.2,7.48,3.2s3.2,2.14,6.41,2.67c3.2.53,24.03,3.2,24.03,3.2h-46.99l-.53-10.68Z" style="fill:#fff;"/><path d="m195.19,700.88s14.93-1.6,17.92,1.6c2.99,3.2,8.96,3.2,13.94,3.2s5.97,2.14,11.95,2.67c5.97.53,44.8,3.2,44.8,3.2h-87.62l-1-10.68Z" style="fill:#fff;"/><path d="m571.62,715.53s10.6-1.6,12.72,1.6c2.12,3.2,6.36,3.2,9.89,3.2s4.24,2.14,8.48,2.67c4.24.53,31.8,3.2,31.8,3.2h-62.18l-.71-10.68Z" style="fill:url(#b);"/><path d="m785.24,703.47s10.6-1.6,12.72,1.6c2.12,3.2,6.36,3.2,9.89,3.2s4.24,2.14,8.48,2.67c4.24.53,31.8,3.2,31.8,3.2h-62.18l-.71-10.68Z" style="fill:url(#c);"/><path d="m640.98,724.66c-.47-4.23.15-8.13,1.84-11.7,2.37-4.43,5.76-7.37,10.17-8.81,4.41-1.44,8.43-.72,12.08,2.17,3.05,2.98,4.6,6.88,4.64,11.7.04,4.81-1.29,9.1-4.01,12.85-2.29,2.99-5.26,5.01-8.9,6.07-3.65,1.06-7.12.43-10.43-1.88-3.14-2.69-4.94-6.16-5.4-10.4Zm330.44,62.68c-1.1,2.02-3.77,6.09-8.01,12.2-4.24,6.12-9.37,12.35-15.39,18.7-6.02,6.35-12.29,10.88-18.82,13.57-2.03.96-4.75,1.73-8.14,2.31-3.39.58-6.61-.19-9.66-2.31-1.44-1.16-2.52-2.33-3.24-3.54-.72-1.2-1.17-2.14-1.34-2.82-2.03-5.87-1.89-12.44.44-19.71,2.33-7.27,5.11-14.13,8.33-20.58,2.12-4.43,3.75-8.23,4.9-11.41,1.14-3.18,1.16-5.39.06-6.64-.34-.29-.68-.48-1.02-.58-1.87-.48-3.92.46-6.17,2.82-2.25,2.36-4.35,5.18-6.29,8.45-1.95,3.27-3.52,6.02-4.71,8.23-4.49,10.88-8.95,21.71-13.35,32.49-2.21,5.39-4.41,10.74-6.61,16.03h-25.43c1.88-4.49,3.75-8.97,5.63-13.45-1.51,1.37-3.04,2.65-4.61,3.85-10.68,8.14-21.11,11.14-31.28,9.03-.76-.09-2.14-.53-4.13-1.3-1.99-.77-4.18-2-6.55-3.68-2.37-1.68-4.49-4.07-6.36-7.15-2.42-4.52-3.61-9.63-3.58-15.32-4.18,5.19-8.98,10.3-14.41,15.32-7.08,6.55-14.39,10.54-21.94,11.99-1.36.29-3.24.39-5.66.29-2.42-.09-4.94-.96-7.57-2.6-3.39-2.5-5.81-5.65-7.25-9.46-1.44-3.8-2.33-7.1-2.67-9.89-1.44,3.66-2.93,7.32-4.45,10.98-1.53,3.66-3.05,7.32-4.58,10.97h-25.43c1.85-4.41,3.7-8.81,5.55-13.21-1.53,1.38-3.08,2.69-4.66,3.9-10.68,8.14-21.15,11.1-31.41,8.88-.68-.09-2.03-.53-4.07-1.3-2.03-.77-4.24-2-6.61-3.68-2.37-1.68-4.49-4.02-6.36-7-2.25-4.35-3.41-9.21-3.48-14.57-4.92,6.28-10.73,12.22-17.43,17.82-8.01,6.69-16.47,9.75-25.37,9.17-1.44-.19-2.67-.5-3.69-.94-1.02-.43-2.08-1.03-3.18-1.8-2.12-2.31-3.39-4.98-3.81-8.02-.42-3.03-.55-5.51-.38-7.44.13-2.14.43-4.44.87-6.86-2.57,3.12-5.36,6.28-8.37,9.46-6.02,6.35-12.29,10.88-18.82,13.57-2.12.96-4.85,1.71-8.2,2.24-3.35.53-6.59-.22-9.73-2.24-1.36-1.16-2.4-2.36-3.12-3.61-.72-1.25-1.21-2.17-1.46-2.74-1.95-5.87-1.76-12.44.57-19.71,2.33-7.27,5.06-14.13,8.2-20.58,2.2-4.43,3.86-8.23,4.96-11.41,1.1-3.18,1.15-5.39.13-6.64-.34-.29-.68-.48-1.02-.58-1.87-.48-3.88.39-6.04,2.6-2.16,2.22-4.22,4.91-6.17,8.09-1.95,3.18-3.52,5.92-4.7,8.23-3.39,8.18-6.78,16.37-10.17,24.55-3.39,8.18-6.74,16.37-10.05,24.55h-25.43c1.95-4.66,3.9-9.32,5.85-13.97-1.54,1.4-3.11,2.72-4.7,3.94-10.68,8.14-21.15,11.1-31.41,8.88-.68-.09-2.03-.53-4.07-1.3-2.03-.77-4.24-2-6.61-3.68-2.37-1.68-4.49-4.02-6.36-7-3.98-7.7-4.56-16.99-1.72-27.87,2.84-10.88,7.84-20.84,15.01-29.89,7.16-9.05,15.15-14.59,23.97-16.61,1.02-.19,2.8-.38,5.34-.58,2.54-.19,5.36.12,8.46.94,3.09.82,6,2.58,8.71,5.27.34.29.91.99,1.72,2.09.8,1.11,1.61,2.58,2.42,4.4.8,1.83,1.29,3.9,1.46,6.21.17,5.11-1.46,9.94-4.9,14.51-3.43,4.57-8.25,8.02-14.43,10.33-1.1-2.21-2.21-4.43-3.31-6.64-1.1-2.21-2.21-4.43-3.31-6.64,5.42-1.25,8.31-3.37,8.65-6.35,0-1.06-.34-2.02-1.02-2.89-.76-.87-1.59-1.37-2.48-1.52s-1.63-.17-2.23-.07c-2.88-.29-6.83,2.22-11.83,7.51-4.66,5.78-7.67,12.42-9.03,19.93-1.36,7.51-.38,13.19,2.93,17.04,1.19,1.54,3.48,2.45,6.87,2.74,6.1.1,11.8-1.97,17.1-6.21,5.3-4.24,9.77-8.78,13.42-13.65,3.19-4.26,5.41-7.39,6.65-9.4,4.01-9.55,8.02-19.1,12.04-28.66,7.29-17.33,14.58-34.61,21.87-51.84h24.42c-7.8,18.77-15.56,37.6-23.27,56.47,2.12-3.18,5.09-6.02,8.9-8.52.85-.58,2.58-1.49,5.21-2.74,2.63-1.25,5.55-2.07,8.77-2.46,3.22-.38,6.19.39,8.9,2.31.34.29.87.79,1.59,1.52.72.72,1.38,1.76,1.97,3.11,1.53,4.24,1.34,9.19-.57,14.87-1.91,5.68-4.3,11.46-7.18,17.33-2.12,4.43-3.9,8.54-5.34,12.35-1.44,3.8-1.99,7.05-1.65,9.75,0,.19.04.39.13.58.08.19.21.39.38.58,1.61,1.06,5.28-.96,11-6.07,5.55-4.94,11.83-11.17,18.85-18.65,3.22-8.18,6.52-15.78,9.89-22.8,4.11-8.57,6.63-13.72,7.57-15.45h25.94c-8.39,16.85-14.41,30.62-18.06,41.3-4.83,13.38-6.27,20.8-4.32,22.24.59.39,1.31.41,2.16.07.85-.34,1.65-.74,2.42-1.23,5-3.27,9.71-7.29,14.12-12.06,4.36-4.72,7.94-8.94,10.72-12.67,2.87-7,6.72-13.6,11.59-19.76,7.16-9.05,15.15-14.59,23.97-16.61,1.02-.19,2.8-.38,5.34-.58,2.54-.19,5.36.12,8.46.94,3.09.82,6,2.58,8.71,5.27.34.29.91.99,1.72,2.09.81,1.11,1.61,2.58,2.42,4.4.81,1.83,1.29,3.9,1.46,6.21.17,5.11-1.46,9.94-4.9,14.51-3.43,4.57-8.25,8.02-14.43,10.33-1.1-2.21-2.21-4.43-3.31-6.64-1.1-2.21-2.21-4.43-3.31-6.64,5.42-1.25,8.31-3.37,8.65-6.35,0-1.06-.34-2.02-1.02-2.89-.76-.87-1.59-1.37-2.48-1.52-.89-.14-1.63-.17-2.22-.07-2.88-.29-6.83,2.22-11.83,7.51-4.66,5.78-7.67,12.42-9.03,19.93-1.36,7.51-.38,13.19,2.92,17.04,1.19,1.54,3.48,2.45,6.87,2.74,6.1.1,11.8-1.97,17.1-6.21,5.3-4.24,9.77-8.78,13.42-13.65,3.27-4.37,5.51-7.54,6.74-9.54,4.66-11.05,9.32-22.1,13.99-33.13,6.7-15.98,13.39-31.96,20.09-47.94h24.42c-7.97,19.35-15.94,38.75-23.91,58.2,8.65-11.17,16.79-15.89,24.42-14.15.51.1,1.48.53,2.93,1.3,1.44.77,2.84,2.07,4.2,3.9,2.03,3.56,2.82,7.34,2.35,11.34-.47,4-1.08,7.15-1.84,9.46-2.63,7.8-7.14,14.1-13.54,18.92-6.4,4.81-13.04,8.43-19.9,10.83.08,1.16.36,2.34.83,3.54.47,1.2,1.16,2.24,2.1,3.11,1.02.96,2.5,1.42,4.45,1.37,1.95-.05,4.71-.89,8.27-2.53,3.05-1.25,7.12-3.78,12.21-7.58,5.06-3.78,10.79-9.49,17.19-17.13,2.85-6.9,6.64-13.4,11.43-19.48,7.12-9.05,15.17-14.59,24.16-16.61.85-.29,2.61-.53,5.28-.72,2.67-.19,5.64.17,8.9,1.08,3.26.92,6.17,2.82,8.71,5.7,2.12,2.79,3.45,5.54,4.01,8.23.55,2.7.78,4.53.7,5.49-.09,7.41-2.71,14.03-7.88,19.86-5.17,5.83-11.36,9.22-18.57,10.18-3.65.29-6.91-.07-9.79-1.08-2.88-1.01-5.21-2.14-6.99-3.39-1.61,7.99-.72,14.06,2.67,18.2.51.58,1.31,1.13,2.42,1.66,1.1.53,2.59.89,4.45,1.08,6.1,0,11.83-2.12,17.17-6.35,5.34-4.23,9.83-8.81,13.48-13.72,2.83-3.82,4.89-6.72,6.19-8.74,5.36-12.84,10.72-25.67,16.07-38.49h24.92c-.93,2.31-1.87,4.57-2.8,6.79-.93,2.31-1.87,4.62-2.8,6.93,2.2-3.18,5.21-6.11,9.03-8.81.93-.58,2.69-1.49,5.28-2.74,2.58-1.25,5.49-2.07,8.71-2.45,3.22-.38,6.19.39,8.9,2.31.42.29.97.79,1.65,1.52.68.72,1.31,1.76,1.91,3.1,1.53,4.24,1.36,9.2-.51,14.88-1.87,5.68-4.24,11.46-7.12,17.33-2.12,4.43-3.9,8.57-5.34,12.42-1.44,3.85-2.03,7.08-1.78,9.68.08.19.15.39.19.58.04.19.15.39.32.58,1.69,1.06,5.4-.94,11.13-5.99,5.72-5.05,12.19-11.53,19.39-19.42,1.1.67,2.16,1.3,3.18,1.88,1.19.77,2.33,1.49,3.43,2.17Zm-135.56-6.93c2.37,1.35,5.42,2.02,9.16,2.02,2.63-.09,5.34-.84,8.14-2.24,2.8-1.39,4.66-3.54,5.6-6.43.25-.96.32-2.04.19-3.25-.13-1.2-.53-2.24-1.21-3.1-.17-.19-.44-.38-.83-.58-.38-.19-.98-.34-1.78-.43-.81-.09-1.84-.05-3.12.14-3.39.96-6.13,2.31-8.2,4.04-2.08,1.73-3.33,2.89-3.75,3.47-1.61,1.93-3.01,4.04-4.2,6.35Zm-70.07,9.53c4.92-3.37,8.27-7.03,10.05-10.98.42-1.06.81-2.45,1.15-4.19.34-1.73.13-3.42-.64-5.05-.43-.67-.89-1.2-1.4-1.59-.51-.38-.89-.62-1.15-.72-3.14-.96-6.99,1.4-11.57,7.08-1.61,3.85-3.22,7.75-4.83,11.7-1.61,3.85-3.22,7.7-4.83,11.55,3.9-1.83,8.31-4.43,13.23-7.8Z" style="fill:url(#d);"/><path d="m781.92,787.53c-4.06,3-8.24,5.5-12.49,7.45,3.35-2.31,6.1-4.8,8.27-7.45h4.22Zm-194.92,27.95c-1.61,0-3.14-.45-4.43-1.3l-.68-.45-.54-.61c-.61-.69-1.09-1.44-1.42-2.2-.36-.83-.58-1.69-.64-2.57-.41-3.68.26-7.76,2.04-12.46.99-2.62,2.17-5.43,3.48-8.36h-11.74c-.11.22-.2.42-.31.65-2.99,6.16-5.64,12.8-7.87,19.76-1.89,5.9-2.12,10.98-.7,15.54.14.29.45.88,1.06,1.93.31.54.79,1.11,1.44,1.69,1.35.8,2.64,1.2,3.94,1.2.36,0,.73-.03,1.1-.09,2.78-.44,5-1.03,6.6-1.76l.2-.09c5.68-2.35,11.29-6.42,16.68-12.11,2.26-2.39,4.42-4.78,6.43-7.15-.17.16-.35.31-.52.46-6.3,5.62-10.39,7.92-14.12,7.92Zm-51.83-27.95l-.07.11c-1.35,2.18-3.62,5.4-6.96,9.85-3.94,5.26-8.83,10.23-14.51,14.77-6.29,5.03-13.21,7.57-20.57,7.57h-.72s-.22-.03-.22-.03c-5.1-.44-8.85-2.12-11.15-5-4.49-5.31-5.92-12.74-4.23-22.08.32-1.77.74-3.5,1.23-5.2h-9.76c-.99,2.57-1.85,5.19-2.55,7.87-2.43,9.32-2.07,16.92,1.11,23.22,1.38,2.17,2.91,3.85,4.55,5.02,1.93,1.37,3.68,2.36,5.22,2.94,1.91.73,2.64.92,2.82.97l.13.02.23.05c1.75.38,3.54.57,5.3.57,6.71,0,13.78-2.8,21.03-8.32,1.39-1.06,2.84-2.27,4.29-3.59l15.63-11.63-7.96,23.99h11.91c2.82-6.95,5.67-13.9,8.49-20.72l8.45-20.39h-11.69Zm305.18,2.97c1.57.55,3.37.83,5.36.83.55,0,1.13-.02,1.72-.06,3.55-.5,6.75-1.73,9.67-3.73h-5.57c-2.1.65-4.2,1.03-6.26,1.1h-.22c-3,0-5.73-.37-8.16-1.1h-2.5l.5.36c1.3.91,3.14,1.79,5.48,2.61Zm90.65,23.47l-.74-.46-.58-.65c-.82-.91-1.4-1.98-1.69-3.06l-.29-.67-.09-.97c-.35-3.59.35-7.66,2.15-12.46.97-2.58,2.1-5.32,3.37-8.17h-11.76c-.07.14-.13.27-.19.41-3.07,6.14-5.75,12.77-7.97,19.7-1.93,6.01-2.09,11.17-.49,15.78l.09.26.04.16c.05.12.22.5.67,1.25.21.36.67.95,1.62,1.73,1.28.86,2.52,1.27,3.79,1.27.36,0,.73-.03,1.12-.1,3.52-.6,5.49-1.31,6.52-1.8l.14-.07.15-.06c5.68-2.34,11.29-6.41,16.68-12.1,2.02-2.13,3.94-4.26,5.76-6.37-6.15,5.39-10.19,7.6-13.92,7.6-1.58,0-3.09-.42-4.36-1.23Zm-47.62-26.44l-.2.47-.3.46c-1.38,2.15-3.48,5.11-6.42,9.08-3.96,5.33-8.87,10.34-14.61,14.88-6.44,5.11-13.51,7.7-21.03,7.7h-.32l-.31-.03c-2.61-.27-4.74-.81-6.5-1.66-1.88-.9-3.32-1.93-4.4-3.16l-.14-.17c-4.61-5.63-5.94-13.49-3.95-23.36l.85-4.21h-9.8l-.14.17c-1.28,1.52-2.52,2.97-3.74,4.34l-.06,14.52c-.02,4.63.89,8.63,2.77,12.21,1.39,2.26,2.92,4,4.55,5.16,1.94,1.38,3.69,2.37,5.19,2.95,2,.77,2.69.93,2.66.93,0,0,0,0,0,0l.25.03.25.05c1.68.35,3.38.53,5.07.53,6.73,0,13.85-2.83,21.18-8.41,1.36-1.03,2.77-2.21,4.21-3.51l19.26-14.52-11.39,26.37h11.95c1.67-4.03,3.34-8.08,5.01-12.17,3.89-9.51,7.81-19.06,11.77-28.65h-11.66Zm-242.06,27.89c-1.13.45-2.28.68-3.41.68-1.59,0-3.12-.45-4.44-1.31l-.16-.1-.15-.11c-4.82-3.57-4.51-10.3,1.36-27.04h-13.28l-.06.14-.81.87c-.93.99-1.85,1.96-2.76,2.91l-3.41,18.73c-.41,2.27-.67,4.32-.78,6.12v.17c-.1,1-.11,2.85.33,6.03.22,1.59.8,2.93,1.81,4.18.52.33,1.01.59,1.47.79.32.14.9.32,1.86.46.5.03,1,.04,1.5.04,6.69,0,12.99-2.55,19.27-7.79,4.53-3.78,8.67-7.78,12.37-11.93-2.36,1.97-4.79,3.77-7.29,5.41-1.08.68-2.24,1.27-3.44,1.75Zm143.12-1.3c-4.38,2.01-7.75,2.97-10.59,3.04h-.44c-4.29,0-6.95-1.66-8.4-3.03-1.63-1.51-2.86-3.34-3.66-5.41-.69-1.78-1.11-3.58-1.23-5.35l-.17-2.45c-1.64.92-3.22,1.73-4.73,2.44l-14.04,6.58,11.6,1.48c.28,2.28,1.05,5.12,2.31,8.44.99,2.61,2.6,4.75,4.93,6.51,1.6.97,3.05,1.49,4.32,1.54.52.02,1.01.03,1.47.03,1.53,0,2.32-.12,2.77-.21,6.36-1.22,12.71-4.73,18.89-10.44,4.64-4.29,8.86-8.71,12.55-13.15-.72.59-1.43,1.14-2.13,1.67-5.49,4.11-9.89,6.82-13.45,8.3Zm-34.33-26.59h-11.74c-1.34,2.18-3.63,5.44-7.02,9.96-3.94,5.26-8.82,10.23-14.51,14.77-6.29,5.02-13.21,7.57-20.57,7.57h-.72s-.21-.03-.21-.03c-5.1-.44-8.85-2.12-11.15-5-4.5-5.31-5.92-12.74-4.23-22.08.32-1.77.74-3.5,1.23-5.2h-10.03c-1.21,1.61-2.56,3.32-4.05,5.11l.2,14.41c.06,4.34.94,8.13,2.68,11.58,1.38,2.17,2.91,3.85,4.55,5.02,1.93,1.37,3.68,2.36,5.22,2.94,1.91.73,2.64.92,2.82.97l.13.02.23.05c1.75.38,3.54.57,5.3.57,6.71,0,13.78-2.8,21.03-8.32,1.39-1.06,2.78-2.22,4.25-3.55l17.41-12.18-9.44,23.77h11.95l2.98-7.15c1.46-3.5,2.91-7.07,4.3-10.6l-.08.04,9.48-22.66Z" style="fill:url(#e);"/><path d="m108.26,787.53c-4.24,7.92-8.51,15.17-12.79,21.65-7.3,11.05-16.77,19.18-28.14,24.16l-.25.12c-1.44.71-4.58,1.88-11.3,3.42-2.38.54-5.04.82-7.9.82-3.15,0-6.63-.33-10.35-.99-8.15-1.99-14.98-5.15-20.3-9.39-3.9-3.11-7.07-5.96-9.47-8.52,3.76-5.68,7.54-11.34,11.27-16.88,3.2-4.82,6.41-9.63,9.59-14.39h.56c1.56,1.4,3.22,2.83,5.02,4.28,4.6,3.72,9.76,6.69,15.34,8.84,3.73,1.44,7.6,2.17,11.51,2.17,2.52,0,5.1-.3,7.65-.91l.17-.04c3.14-.83,5.93-2.01,8.29-3.5,2.16-1.37,3.81-2.59,5.03-3.73,2.41-2.15,4.8-4.53,7.17-7.1h18.91Zm134.48,21.95l1.93-4.78-3.3-1.39c-.55-.23-1.04-.35-1.44-.35-.24,0-.84,0-1.85.83-1.35,1.56-1.74,3.26-1.29,5.63l.66,3.44-2.6,2.34c-.94.85-2.08,1.56-3.39,2.12l-.12.05c-1.84.74-3.52,1.1-5.12,1.1-.58,0-1.15-.05-1.7-.14-3.98-.52-7.4-2.46-9.89-5.61l-.22-.27-.19-.3c-2.93-4.71-3.51-10.95-1.73-18.56.48-2.04,1.1-4.06,1.83-6.04h-13.79c-1.42,4.21-2.44,8.5-2.98,12.85-1.15,9.26.15,16.47,3.98,22.01,1.25,1.47,2.41,2.57,3.44,3.27,1.56,1.05,2.15,1.29,2.23,1.32,2.12.75,4.21,1.14,6.19,1.14s3.96-.37,5.93-1.15c4.64-1.81,8.54-4.04,11.61-6.62,4.48-3.77,5.42-4.8,5.53-4.92l1.4-1.78,2.22-.47c3.92-.82,8.61-2.73,13.94-5.65,1.52-.92,2.96-1.86,4.34-2.83-1.13.47-2.22.86-3.3,1.17l-12.33,3.62Zm-75.79-21.95c-1.18,3.84-2.9,7.46-5.21,10.83-5.17,7.52-11.87,12.56-19.92,14.99l-.32.09c-2.91.71-5.74,1.08-8.41,1.08-2.15,0-4.25-.23-6.24-.7-3.93-.91-7.34-2.17-10.13-3.72-2.08,3.06-4.17,6.16-6.23,9.25-1.82,2.76-3.69,5.54-5.58,8.3,1.33,1.1,2.91,2.28,4.7,3.53,3.49,2.43,7.99,4.34,13.38,5.69,2.9.62,5.8.94,8.63.94,5.02,0,10.04-1,14.92-2.96,7.84-3.16,14.31-8.29,19.76-15.69l.21-.28.23-.25c.62-.67,2.44-3.01,6.04-10.36,2.47-5.04,3.74-11.74,3.75-19.9-.02-.29-.05-.56-.07-.85h-9.52Zm270.36,28.12c-1.19.42-2.36.63-3.49.63-2.08,0-3.99-.7-5.51-2.03l-.46-.4-.37-.48c-1.22-1.58-2.49-4.31-1.6-8.31.36-1.64.81-3.18,1.32-4.57,1.12-3.03,2.89-7.31,5.37-12.97h-12.9c-2.92,6.37-5.56,12.15-8.07,17.68l-.14.3-.04.06c-.12.31-.44,1.25-1.13,3.79-.62,2.33-.93,5.09-.93,8.22,0,2.49.66,4.8,2.02,7.03.8,1.09,1.42,1.66,1.82,1.94,1.05.76,1.48.96,1.48.96h0c1.45.6,2.88.89,4.38.89,1.93,0,3.99-.51,6.15-1.5,4.55-2.11,10.91-5.85,15.43-11.7.42-.55.83-1.11,1.22-1.69-.13.08-.26.16-.4.23-1.15.71-2.51,1.34-4.13,1.91Zm-54.92-28.12c.06.26.13.53.19.79.67,3.26.48,6.72-.57,10.31-.27.91-.7,1.98-1.32,3.26-.76,1.56-1.84,3.08-3.23,4.51l-.11.11c-2.81,2.76-6.04,4.43-9.59,4.96-1.13.17-2.24.26-3.31.26-1.96,0-3.83-.29-5.57-.85-3.44-1.12-6.46-3.13-8.98-5.99l-3.54-4.02,3.38-3.99-1.17,1.15-.24.19c-1.61,1.29-3.24,2.44-4.97,3.51l-.14.08c-1.24.72-2.43,1.36-3.58,1.93l2.62,6.84c.28.74.58,1.5.91,2.3,1.66,4.08,4.69,7.86,9,11.26,4.18,2.58,8.32,3.83,12.65,3.83,2.79,0,5.72-.54,8.69-1.62,8.01-2.89,13.86-7.8,17.89-15,3.47-7.26,4.61-15.09,3.48-23.81h-12.47Zm-60.55,21.95l1.93-4.78-3.3-1.39c-.55-.23-1.04-.35-1.44-.35-.24,0-.84,0-1.85.83-1.35,1.56-1.74,3.26-1.29,5.63l.66,3.43-2.59,2.34c-.94.85-2.08,1.57-3.39,2.12l-.12.05c-1.84.74-3.52,1.1-5.12,1.1-.58,0-1.15-.05-1.7-.14-3.99-.52-7.4-2.46-9.89-5.61l-.22-.28-.19-.3c-2.93-4.71-3.51-10.95-1.73-18.56.48-2.04,1.1-4.06,1.83-6.04h-14.47c-.51.75-1.07,1.51-1.68,2.3l-.91,13.58c-.53,7.85.87,14.06,4.26,18.98,1.25,1.47,2.41,2.57,3.44,3.27,1.56,1.05,2.15,1.29,2.23,1.32,2.12.75,4.21,1.14,6.19,1.14s3.96-.37,5.93-1.15c4.64-1.81,8.54-4.04,11.61-6.62,4.48-3.77,5.42-4.8,5.53-4.92l1.4-1.78,2.22-.47c3.91-.82,8.58-2.72,13.9-5.63l5.39-3.29c-1.49.67-2.91,1.2-4.31,1.61l-12.33,3.62Z" style="fill:url(#f);"/><path d="m959.23,829.43c0-3.88,2.87-6.44,6.36-6.44s6.36,2.56,6.36,6.44-2.87,6.44-6.36,6.44-6.36-2.72-6.36-6.44Zm79.83-72.84v79.15h-12.8v-7.36c-4.48,5.44-11.09,8.11-18.88,8.11-16.53,0-28.8-11.52-28.8-29.23s12.27-29.12,28.8-29.12c7.36,0,13.87,2.45,18.35,7.68v-29.23h13.33Zm-13.12,50.67c0-10.88-7.36-17.81-16.96-17.81s-16.96,6.93-16.96,17.81,7.36,17.81,16.96,17.81,16.96-6.93,16.96-17.81Zm83.95,4.27h-44.69c1.6,8.32,8.53,13.65,18.45,13.65,6.4,0,11.41-2.03,15.47-6.19l7.15,8.21c-5.12,6.08-13.12,9.28-22.93,9.28-19.09,0-31.47-12.27-31.47-29.23s12.48-29.12,29.44-29.12,28.8,11.63,28.8,29.44c0,1.07-.11,2.67-.21,3.95Zm-44.8-8.85h32.32c-1.07-8.21-7.36-13.87-16.11-13.87s-14.93,5.55-16.21,13.87Zm110.08-23.89l-24.43,56.96h-13.76l-24.43-56.96h13.87l17.71,42.24,18.24-42.24h12.8Z" style="fill:#fff;"/><path d="m968.69,829.44c0,1.84-1.3,3.17-3.09,3.17s-3.1-1.33-3.1-3.17c0-2.19,1.55-3.17,3.1-3.17s3.09.98,3.09,3.17Zm60.37-24.76c.09.85.14,1.71.14,2.59,0,12.22-8.51,21.08-20.23,21.08s-20.23-8.87-20.23-21.08c0-.88.06-1.75.14-2.59h-6.94c-.07.85-.11,1.71-.11,2.59,0,15.53,10.26,25.96,25.53,25.96,6.97,0,12.63-2.39,16.36-6.92l5.79-7.03v13.2h6.26v-27.8h-6.73Zm71.9,0l.17,1.28h-39.85l.2-1.28h-6.23c-.07.85-.12,1.71-.12,2.59,0,15.53,11.33,25.96,28.2,25.96,7.71,0,14.04-2.11,18.5-6.12l-3.01-3.46c-4.2,3.24-9.19,4.82-15.17,4.82-11.43,0-19.73-6.25-21.66-16.31l-.75-3.89h45.58c0-.25.01-.48.01-.68,0-.99-.04-1.96-.12-2.91h-5.74Zm53.79,0l-10.67,24.7-10.35-24.7h-6.52l11.92,27.8h9.45l11.92-27.8h-5.76Z" style="fill:url(#g);"/><path d="m368.81,598.13s4.78-7.14,9.37-8.39c4.59-1.25,9.6-2.09,9.6-2.09,0,0,1.67-12.94,7.93-16.7,6.26-3.76,7.93,4.59,7.93,4.59l-1.67,20.87-4.27,2.93-28.89-1.22Z" style="fill:#fff;"/><path d="m278.06,649.12s-9.2,8.28-28.48,8.67c3.78,3.22,79.71.66,79.71.66l160.74-4.65-16.61-15.94-33.21-31.88-25.24-25.9-8.63,9.3-8.63,9.96h-12.62l-18.6,10.63-8.63,9.3-5.98,1.99-9.3,5.31-18.6,1.33-8.63,5.31-5.31,11.29-31.97,4.61Z" style="fill:url(#h);"/><path d="m365.82,615.29s-3.32,15.28,1.99,17.93c5.31,2.66,13.95,4.65,17.27-1.33,3.32-5.98-2.66-9.96,5.98-17.27,8.63-7.31,11.29-5.98,11.29-5.98l-11.96-8.63-12.62,1.33-11.96,13.95Z" style="fill:#fff;"/><path d="m278.1,648.59l33.64-1.2s7.21-2.4,8.41-6.01c1.2-3.6-.6-8.41,6.61-9.61,7.21-1.2,14.42-.6,16.82,3s1.2-4.81,6.61-7.21c5.41-2.4,10.21,1.2,13.82-1.8,3.6-3,3.6-9.61,7.21-13.82,3.6-4.2,15.02-7.81,21.02-6.01s10.81,4.2,10.81,4.2c0,0-1.2-7.81,4.2-13.82,5.41-6.01,16.82-6.01,16.82-6.01l-10.81-16.82s-13.22,4.2-15.62,10.21c-2.4,6.01-2.4,12.61-2.4,12.61,0,0-16.82-5.41-26.43,1.8-9.61,7.21-11.41,17.42-11.41,17.42,0,0-4.2-.6-7.81,1.8-3.6,2.4-6.61,7.21-6.61,7.21,0,0-8.41-7.21-22.83,0-9.18,4.59-13.22,11.41-12.01,13.82,1.2,2.4-5.47,2.28-9.01,4.2-6.61,3.6-21.02,6.01-21.02,6.01Z" style="fill:#979da5;"/><path d="m333.37,644.98h160.99l-36.04-23.43-19.22-13.82s-11.41-9.01-20.42-.6c-9.01,8.41-8.41,15.62-12.61,16.82-4.2,1.2-13.22-5.41-20.42-1.8-7.21,3.6-6.61,9.01-10.81,10.81s-6.01-2.4-10.21.6c-4.2,3-3.6,4.2-8.41,6.01-4.81,1.8-22.83,5.41-22.83,5.41Z" style="fill:#979da5;"/><path d="m257.68,659.4h282.93l-42.65-13.82-19.22-3.6s-22.23-3.6-27.63-.6-7.21,7.21-11.41,8.41c-4.2,1.2-6.61-1.8-14.42,0s-32.44.6-34.84,2.4c-2.4,1.8-6.61,1.8-6.61,1.8l-126.15,5.41Z" style="fill:#979da5;"/><path d="m1166.33,488l-29.08,7.41c-.24.06-27.85,7.52-40.3,29.6-2.76,4.9-5.17,9.27-7.34,13.21-10.23,18.6-15.86,28.84-27.47,37.03-6.54,4.62-14.84,6.77-22.85,8.85-2.4.62-5.64,1.47-8.42,2.36-1.37.43-1.37,2.4.01,2.8,7.05,2.06,23.88,3.14,23.88,3.14-5,4.9-36.43,34.81-53.36,35.6-14.71,1.23-33.66,10.36-33.66,10.36-2.37,1.26-23.58,12.3-38.42,12.3-.58,0-1.14-.02-1.7-.05-8.34-.46-18.65-4.86-29.57-9.52-.92-.39-1.89-.81-2.9-1.23l-3.27,7.49c-.7,1.6-7.39,15.86-25.52,21.3-5.16,1.55-11.52,2.3-19.43,2.3-12.34,0-24.14-1.89-24.64-1.96l-4.81-.78-2.71-4.06c-1.23-1.78-5.64-6.81-10.91-8.29-.51,5.49-1.75,11.49-4.6,16.17l-6.06,8.04-7.1.02h-58.74s-.61-.05-.61-.05c-4.05-.45-8.05-1.58-11.94-3.36h-162.68l-.66-.07c-16.53-1.94-28.22-4.75-44.09-10.63,0,0-.01-.01-.05-.01-1.65-.77-48.21-21.32-64.6-49.68l-9.49-9.94s-28.72-15.26-41.99-43.28c-16.59-35.45-19.41-71.91-5.81-108.63,1.4-3.81,3.01-7.58,4.78-11.3-11.58-10.38-24.39-22.85-30.48-32.17-.27-.4-.53-.82-.8-1.23l-16.78-9.25c-3.44-1.9-20.81-12.13-24.67-26.78-1.19-4.51-1.9-11.2-2.81-19.66-1.44-13.45-3.42-31.86-7.84-41.32-.24-.52-.51-1.04-.81-1.54-.29.82-.6,1.65-.93,2.47-5.39,13.22-19.38,28.73-42.51,32.58-2.63.45-5.28.66-7.87.66-7.29,0-14.29-1.7-20.89-5.07-5.83,2.24-13.4,4.04-21.45,4.04-9.56,0-18.01-2.46-25.1-7.33-15.96-10.94-22.7-23.75-20.64-39.17.71-5.34,3.68-9.42,6.55-13.35,3.34-4.59,6.51-8.91,6.51-15.23,0-4.26-.61-6.66-1.07-7.85-3.65-1.85-7.19-3.72-10.65-5.53-10.55-5.53-22.5-11.8-27.82-11.95-.37-.01-.75-.01-1.11-.01-5.42,0-9.42,1.08-12.15,2.22-6.16,7.34-8.26,14.96-8.28,15.05l-3.45,21.09-3.55-3.37c-12.97-12.26-23.42-27.04-30.15-43.58-2.3-5.65-4.21-11.61-5.22-17.45-4.13-23.68,4.39-47.36,21.66-60.32l.43-.32.47-.29c8.06-4.9,21.98-7.38,41.34-7.38h1.76c.83-4.1,2.19-8.69,4.37-13.16-4.3-4.77-7.74-10.8-4.61-20.19,3.18-9.57,12.53-13.62,18.33-16.04.75-.71,2.04-2.85,2.85-4.14,2.03-3.32,4.32-7.06,8.24-9.51,2.27-1.43,4.96-2.17,7.75-2.17,1.53,0,3.08.21,4.68.63,7.19-9.72,18.04-22.63,31.45-33.28C254.83,19.91,301.22,0,339.14,0c24.07,0,42.48,8.34,50.52,22.86,11.02,19.89,7.34,35.03,2.32,44.24-3.85,7.06-9.52,12.67-15.21,17.1,2.62,2.47,4.72,5.31,6.25,8.49,4.18,8.64,3.86,18.38-.77,28.08,1.33,2.16,2.35,4.55,3.01,7.11,2.36,9.11-1.19,18.44-10.09,27.05,7.08,8.5,10.36,17.32,10.79,18.51l6.5,18.22-6.11-1.12c1.34,5.32,1.43,11.56,1.21,16.37,4.49,5.37,12.84,13.48,24.49,16.9,3.53,1.03,7.59,1.55,12.1,1.55,12.81,0,24.57-4.21,24.68-4.25l18.68-6.76-1.59,7.97c26.32-26.48,62.12-61.78,73.62-69.77,5.6-3.89,17.72-9.44,40.42-19.73,41.84-18.95,111.86-50.67,127.64-72.84l15.94-22.39,4.22,27.16c.16,1.06,3.91,26.05-2.83,51.12-1.19,4.44-2.73,8.6-4.46,12.46,3.4-1.65,7.02-3.54,10.96-5.74l20.98-11.76-4.47,23.34c54.58-14.56,110.36-39.09,110.96-39.37l9.75-4.31,4.77,9.54c.83,1.65,7.89,16.91.78,42.66-3.42,12.38-15.38,31.09-29.51,48.92l14.7-7.36-1.18,19.37c-.12,1.86-2.86,42.57-22.91,67.52,3.63-2.72,7.07-5.41,10.13-7.93,16.69-13.79,22.69-21.1,27.5-26.96.97-1.18,1.88-2.29,2.78-3.34,3.23-3.77,7.11-4.34,9.13-4.34,3.76,0,7.32,1.86,9.49,5,1.69,2.42,2.65,5.22,2.36,11.01,18.09-11.79,31.38-21.43,31.56-21.57l3.44-2.51,4.25.43c.1,0,10.7,1.04,26.73,1.04,20.06,0,39.27-1.53,57.09-4.56,65.88-11.25,106.28-31.03,110.51-35.68l-9.06,25.36c-.46.96-8.36,17.09-21.19,35.09l6.29-2.57-10.13,24.7c-4.42,10.79-11.23,19.67-18.76,26.88l-2.72,7.83c-.88,2.53-9.72,25.4-47.57,46.75-5.53,3.12-11.17,6.05-16.75,8.79l8.46,2.68c-.83.75-25.63,21.82-52.18,34.15-4.71,2.19-9.34,4.11-13.81,5.73-6.96,7.79-38.74,36.37-74.36,41.32-13.01,1.81-26.64,2.72-40.53,2.72-7.69,0-13.77-.29-17.55-.52-8.28,5.53-29.59,18.12-55.48,20.47-2.81.26-5.85.39-9.06.39-12.76,0-27.18-2-40.26-4.52,8.45,14.72,14.58,30.36,18.03,46.18,10.59,6.31,17.35,17.87,17.35,30.49,0,1.75-.12,3.48-.39,5.18h7.16c.6-.06,1.19-.1,1.79-.1,4.87,0,9.37,2.1,13.69,6.46,2.83-4.9,5.06-9,6.44-11.93,8.51-18.1,51.41-31.11,61.5-32.37l3.74-.47,2.75,1.62c.57.24,3.28,1.28,7.26,1.28s8.4-1.11,12.64-3.31c8.56-4.46,12.24-7.52,15.48-11.35,3.48-4.11,6.24-8.79,8.33-13.74l6.13-16.02,5.63,12.43c5,13.64,5.99,28.52,2.3,42.56-.35,1.29-.72,2.58-1.14,3.86,2.66-1.39,5.34-2.68,8.05-3.79,6.86-2.81,13.32-4.22,19.19-4.22,7.07,0,11.27,2.05,12.74,2.93l7.44,4.47c5.7-11,12.04-21.26,31.49-28.63,14.08-5.34,26.11-6.47,33.72-6.47,3.68,0,7.32.55,10.84,1.62l15.04,4.56-17,13.97c-4.32,3.86-8.44,7.27-10.85,10.5-1.91,2.55.15,6.1,3.31,5.77,5.73-.6,15.52-3.68,27.52-15.73.98-.98,1.8-1.93,2.51-2.82,3.01-3.88,3.98-8.97,2.78-13.73h.01l-1.18-4.71,9.69-3.34c.94-.32,23.26-7.95,41.37-10.11,2.41-.3,4.9-.45,7.41-.45,16.63,0,29.7,6.31,31.14,7.02l26.83,13.43Z" style="fill:#fff;"/><path d="m361.05,475.36c-9.65,0-20.24-.92-31.45-1.89-3.83-.33-7.78-.67-11.85-.99-1.97-.15-3.85-.83-5.47-1.94-1.81-.74-7.12-1.8-11.05-2.59-2.28-.46-4.67-.94-7.05-1.46-.13-.03-.26-.06-.39-.09-.88-.23-1.77-.45-2.65-.67-4.03-1.01-8.18-2.05-11.91-3.52-4.37-1.63-8.32-4.01-12.66-5.64-.99-.37-1.91-.89-2.79-1.49-.65-.44-2.04-1.81-2.82-.99-1.15,1.23,1.58,3.28,2.35,3.91.83.68,1.51,1.54,2.2,2.35,1.04,1.23,2.14,2.41,3.17,3.65,1.28,1.53,2.54,3.07,3.94,4.49.5.5,1.18.96,1.38,1.68-.94-.07-2.28-1.09-3.13-1.55-1.11-.59-2.31-.97-3.44-1.55-3.03-1.56-5.87-3.34-9.04-4.64-4.36-1.79-8.79-3.42-12.9-5.75-2.92-1.65-5.91-3.19-8.77-4.95-1.24-.76-2.52-1.43-3.79-2.14-1.35-.76-2.33-1.65-3.52-2.63-1.11-.9-2.19-1.82-3.23-2.73-2.03-1.8-3.77-3.47-5.35-5.11-.08-.09-.17-.18-.25-.27-1.47-1.64-2.79-3.2-3.95-4.57,0,0-3.64-4.28-3.68-4.33-1.18-1.44-2.27-2.67-3.43-3.89-.63-.66-1.31-1.34-2.05-2.04-.07-.07-.87-.87-.87-.87-.57-.58-1.16-1.18-1.8-1.79-.9-.87-1.84-1.73-2.83-2.61,0,0-1.82-1.58-1.89-1.65l-1.84-1.68c-2.28-2.08-3.56-4.97-3.64-7.96-.89-1.11-1.94-2.35-2.76-3.33-1.32-1.57-2.69-3.19-3.98-4.84-5.36-6.73-6.63-9.7-7.2-11.91-.01-.06-.03-.11-.04-.17-.28-1.15-.39-2.31-.34-3.45-.81-1.05-1.61-2.11-2.4-3.17-.03,0-.06,0-.09,0-3.42,0-6.76-1.56-8.94-4.45-17.77-23.57-30.41-51.59-36.57-81.03-5.85-27.89-5.82-57.6.08-85.91.06-.31.14-.62.23-.92l1.07-3.58c.24-.82.53-1.68.82-2.54.14-.4.27-.8.4-1.2l2.24-6.99c.05-.15.1-.29.15-.43.69-1.89,1.33-3.78,1.96-5.66.87-2.58,1.77-5.23,2.8-7.91,3.54-10.08,7.45-19.49,10.46-26.57.02-.04,2.86-6.5,2.86-6.5.63-1.41,1.28-2.76,1.94-4.11.39-.8.78-1.59,1.15-2.4l1.52-3.22c.36-.78.8-1.61,1.24-2.44.17-.32.34-.64.5-.96l3.28-6.33c.07-.13.13-.25.2-.37l5.26-9.26c.08-.14.16-.28.25-.42l1.9-3.03,3.87-6.13c.09-.14.18-.28.27-.41l4.17-6c.34-.49.72-.95,1.14-1.38,2.74-2.84,5.25-4.81,6.6-5.86,2.17-1.68,3.92-2.8,5.58-3.59,2.14-1.02,4.18-1.51,6.26-1.51.77,0,1.52.07,2.24.2.63-1.29,1.51-2.47,2.64-3.47.76-.68,1.52-1.36,2.28-2.05,1.51-1.37,3.08-2.78,4.74-4.19.05-.04,7.23-5.88,7.23-5.88.14-.11.28-.22.43-.33l7.27-5.35c1.23-.94,2.43-1.72,3.49-2.42l4.65-3.06c1.37-.9,2.86-1.46,4.38-1.7,1.12-4.92,5.31-7.96,6.97-9.16,2.51-1.85,5.69-3.83,7.93-5.17.11-.06.22-.13.33-.19,2.78-1.55,6.12-3.23,10.5-5.28.55-.26,1.13-.47,1.71-.64,1.7-.48,3.28-.9,4.74-1.28.88-.23,1.7-.45,2.49-.66.07-.02.13-.04.2-.05.75-.19,1.45-.39,2.11-.57,1.16-.32,2.36-.66,3.62-.93,2.72-.64,4.67-1.17,6.28-1.71.56-.2,1.11-.39,1.66-.58,1.33-.46,2.47-.86,3.71-1.38l3.48-1.45c1.47-.63,3.22-1.36,5.28-2.07,1.18-.4,2.4-.6,3.61-.6.93,0,1.85.12,2.75.34,1.35-.13,3.71-.52,5.23-.77.09-.02.19-.03.28-.04,1.16-.16,2.36-.34,3.57-.53,3.61-.55,7.33-1.11,10.76-1.25,1.45-.31,2.79-.62,4.06-.92.12-.03.24-.05.36-.08,0,0,8.94-1.82,8.98-1.82l2.11-.4c.21-.04.42-.07.64-.1l2.53-.32c2.97-.33,6.33-.7,10.53-.7,0,0,.69,0,.78,0l.83.03c3.88.12,8.72.27,14.72,1.24,4.45.72,7.95,4.01,9.04,8.23l3.41,1.02,3.69,1.08c.16.05.31.1.47.15l1.58.54c1.45-.68,3.05-1.04,4.71-1.04.87,0,1.75.1,2.64.32,4.63,1.12,9.2,2.26,13.77,3.44.47-1.01.63-1.05.2-2.02-.26-.58-.51-1.16-.82-1.71-.67-1.17-1.91-1.83-2.64-2.9-1.43-2.12,1.85-.92,2.77-.65,1.18.34,2.44.4,3.61.77,1.23.39,2,.76,3.32.76s2.74-.08,4.11-.05c2.18.05,3.95,1.27,5.99,1.83,1.39.38,2.49.7,3.8,1.39,1.34.7,2.6,1.45,3.72,2.12.51.3,1.01.6,1.52.89.04.02,5.1,3.01,5.18,3.06,1.14.71,2.26,1.45,3.38,2.19l1.48.97c1.99,1.29,3.44,3.12,4.28,5.19l6.31,2.35c.11.04.22.08.33.13,1.8.74,3.58,1.51,5.36,2.3l1.26.55s3.38,1.5,3.44,1.53c.88.41,1.74.85,2.61,1.3l.85.44c2.36,1.22,4.48,2.35,6.54,3.48.1.06.2.11.31.17,2.26,1.33,4.44,2.73,6.47,4.04l3.15,2.08c.2.13.39.26.57.41,0,0,3.05,2.3,3.1,2.34l.64.5c1.87,1.46,3.81,2.96,5.79,4.7.05.05.1.09.16.14,2.07,1.89,4.11,3.82,6.07,5.76l.39.38c.43.42.86.85,1.28,1.29.08.09.16.17.24.26l1.38,1.54c.84.94,1.65,1.87,2.45,2.81l2.79,2.52c.09.08.18.17.27.25.97.93,1.9,1.8,2.8,2.64,1.01.95,1.94,1.76,2.83,2.55.89.79,1.76,1.55,2.58,2.31l4.69,4.32s2.3,2.1,2.34,2.13c.65.61,1.26,1.23,1.88,1.86,0,0,.62.63.65.66,2.97,3.06,6.33,6.52,9.72,11.32,3.47,4.62,6.87,10.34,10.39,17.49.22.44.41.89.56,1.36.34,1.02,1.1,3.27.93,5.96,3.31,1.7,5.69,5,6.04,8.97v.11c.09.83.48,2.64.83,4.24.14.64.28,1.29.42,1.95.02.09.2,1.04.2,1.04.54,2.91,1.1,5.91,1.42,8.64.16,1.3.25,2.48.25,3.57.73,1.37,1.45,2.65,2.14,3.91.37.67.74,1.32,1.08,1.95l4.61,8.38c.09.17.18.34.27.52,1.72,3.55,3.11,7.02,4.37,10.91.75,2.26,1.24,4.64,1.72,6.94,0,0,.15.74.17.83l.19,1.02c.42,2.24.95,5.02,1.18,8.26.09,1.32-.05,2.6-.38,3.81,0,.8,0,1.63,0,2.43-.02,2.44-.03,5.34-1.19,8.08,0,0,.57,5.36.57,5.44l.5,5.85c.39,3.49.53,6.85.66,10.11.04.89.07,1.78.11,2.65.13,2.25.07,4.42.02,6.33v.24c-.07,2.1-.15,3.94-.27,5.64-.28,3.98-2.66,7.52-6.24,9.27-.41.2-.84.38-1.27.53-.33,1.55-.63,3.01-.8,3.87-.11.57-.22,1.13-.31,1.67,2.88,1.95,4.8,5.2,4.93,8.89.12,3.41,0,6.65-.34,9.89,0,.09-.02.17-.03.26-.54,4.1-1.12,7.59-1.83,10.98-.02.1-.04.21-.07.31-.45,1.87-.94,3.81-1.46,5.79l-.26.99c-.44,1.69-.95,3.6-1.64,5.61l-.43,1.3c-1.16,3.51-2.47,7.47-4.15,11.45-3.48,9.02-7.96,17.68-12.29,25.7-.06.11-.12.22-.18.33l-5.11,8.75c-.08.13-.15.25-.23.38l-2.01,3.16-3.19,5.06c-.06.09-.12.19-.18.28l-3.49,5.18c-.33.49-.7.95-1.1,1.38-8.58,9.2-17.86,16.63-29.16,24.96-4.17,3.02-8.37,6-12.73,9.1-6.41,4.56-13.04,9.26-20.32,14.6-1.83,1.34-3.96,2.05-6.09,2.15-.21,2.15-1.04,4.64-3.16,7.17-.63.75-1.35,1.42-2.16,1.98-.78.55-1.55,1.1-2.32,1.66-2.08,1.49-4.22,3.04-6.63,4.52,0,0-4.5,2.83-4.56,2.87l-.59.36c-.7.43-1.41.86-2.14,1.26-.04.02-2.66,1.41-2.72,1.44l-.96.49c-3.16,1.61-6.74,3.43-10.94,4.91-2.12.79-4.29,1.55-6.44,2.24-2.37.75-4.63,1.27-6.81,1.78l-.85.2c-.62.15-1.26.24-1.9.28-.64.04-1.27.08-1.9.13-1.48.11-3.02.22-4.7.25l-5.98.1c-.93.03-1.87.05-2.8.05-2.22,0-4.37-.08-6.46-.16-.25.14-.5.27-.76.41-1.28.66-2.67,1.29-4.11,1.85-2.9,1.13-5.82,2.01-8.74,2.63-.1.02-.21.04-.31.06-2.67.49-5.59.89-8.93,1.21l-.51.05c-.69.07-1.38.13-2.08.17-.09,0-2.59.08-2.64.08,0,0-4.63.07-4.69.07Z" style="fill:#fff;"/><polygon points="131.17 241.42 121.67 248.65 116.25 251.36 112.63 265.38 114.44 265.38 140.66 265.38 142.47 260.41 131.17 241.42" style="fill:#fff;"/><path d="m550.03,197.96c.23.72.47,1.47.7,2.23-.21-.55-.43-1.25-.7-2.23ZM241.6,72.28l-3.81,2.51c-1.27.84-2.56,1.65-3.77,2.58l-7.35,5.4-7.07,5.75c-2.32,1.96-4.54,4.04-6.8,6.05l2.32-.77c8.18-7.85,17-15.13,26.49-21.52Zm189.92-22.07c1.59.66,3.18,1.32,4.82,1.92,1.62.66,3.29,1.3,5.08,1.83-1.56-1.01-3.11-2.06-4.69-3.05l-4.82-2.85c-1.62-.93-3.22-1.94-4.88-2.81l-5-2.63-.53,4.32c1.82.35,3.54.82,5.21,1.35,1.65.58,3.23,1.25,4.82,1.9Zm119.34,123.03c-.03.45-.09.85-.18,1.19,1.76,3.56,3.42,6.41,4.83,8.97,1.69,3.07,3.13,5.68,4.62,8.39,1.35,2.78,2.58,5.74,3.79,9.48.62,1.87,1.03,3.98,1.53,6.35.44,2.38.99,5.01,1.21,8.04-.57-3.44-.38,1.45-.42,5.33-.01,1.94-.09,3.63-.38,3.94-.13.15-.28-.04-.47-.73-.22-.68-.5-1.85-.85-3.65-.03,1.29.09,2.73.17,4.31.07,1.58.19,3.28.36,5.08.19,1.79.39,3.68.59,5.63.17,1.95.34,3.97.51,6,.46,4.06.55,8.23.73,12.19.11,1.98.05,3.9,0,5.73-.05,1.83-.13,3.57-.24,5.17-1.36.66-2.5-1.85-3.67-1.69-.59.08-1.18.82-1.82,2.92-.74,2.09-1.53,5.55-2.63,11.03-.71,3.66-1.16,6.47-1.42,8.65-.33,2.16-.5,3.69-.48,4.79.02,2.21.67,2.72,1.38,3.15,1.38.84,3.37,1.39.12,14.67.95-2.97,1.73-5.99,2.6-9,.21-.75.43-1.5.62-2.26l.53-2.28,1.06-4.57c.08,2.4.05,5.21-.28,8.31-.4,3.09-.92,6.5-1.68,10.13-.43,1.8-.9,3.66-1.4,5.57-.51,1.91-.99,3.88-1.68,5.84-1.31,3.93-2.62,8.07-4.36,12.15-3.18,8.29-7.44,16.58-11.76,24.58-1.15,1.97-2.29,3.92-3.42,5.86-.56.97-1.13,1.93-1.69,2.89-.6.94-1.19,1.87-1.78,2.79-1.17,1.86-2.32,3.69-3.45,5.48-1.19,1.76-2.35,3.49-3.49,5.18-8.4,9.01-17.68,16.26-27.62,23.59-10.04,7.26-20.67,14.63-33.02,23.69,1.17-1.32,6.79-6.37,4.73-6.63-1.33.54-2.79,1.32-4.32,2.25-1.53.93-3.09,2.04-4.73,3.06-1.62,1.05-3.21,2.15-4.69,3.21-.74.54-1.45,1.06-2.12,1.55-.69.47-1.34.9-1.94,1.31-6.18,5.15-4.77,5.56-2.22,5.24,2.53-.31,6.18-1.34,4.08,1.17-2.8,1.96-5.5,4.04-8.44,5.83-1.46.92-2.94,1.85-4.44,2.8-.76.46-1.51.95-2.31,1.38-.8.42-1.6.85-2.42,1.28-3.29,1.67-6.73,3.48-10.65,4.85-1.94.73-3.97,1.44-6.09,2.13-2.13.67-4.4,1.18-6.75,1.73-2.05.12-4.06.33-6.12.36l-6.11.11c-4.03.15-8.09-.12-12.07-.24-.87.63-1.79,1.27-2.77,1.77-.98.51-2.01.97-3.09,1.39-2.15.84-4.48,1.57-6.98,2.1-2.51.46-5.18.81-7.98,1.08-.7.06-1.41.14-2.13.18-.72.02-1.45.04-2.19.06-1.47.02-2.98.04-4.52.07-12.34,0-26.47-1.59-42.43-2.85-2.82-2.27-12.45-3.67-22.05-5.77-4.74-1.22-9.55-2.29-13.34-3.8-1.91-.71-3.6-1.41-4.95-2.12-1.35-.7-2.33-1.5-2.88-2.21-3.46-1.36-5.11-2.69-5.78-4.03-.62-1.26-.38-2.56,0-3.86-16.29-7.07-31.66-16.25-45.68-27.35.12,1.44.86,3.43,2.09,5.75,2.29,3.91,6.06,8.93,10.76,13.23-1.59-1.18-3.17-2.36-4.66-3.41-1.46-1.09-2.81-2.11-4.01-2.83,3.62,3.71,12.84,10.58,19.28,15.56,6.52,4.78,10.05,8.19,1.16,5.52-1.71-.88-3.28-1.74-4.7-2.67-1.43-.9-2.76-1.76-3.99-2.6-1.22-.85-2.38-1.62-3.41-2.46-1.03-.84-1.98-1.64-2.87-2.43-1.77-1.57-3.31-3.03-4.68-4.47-1.34-1.49-2.54-2.91-3.72-4.32-1.18-1.39-2.35-2.76-3.58-4.21-1.2-1.47-2.5-2.96-3.99-4.52-.75-.78-1.54-1.58-2.41-2.4-.84-.85-1.72-1.75-2.69-2.68-.96-.93-2-1.89-3.13-2.89-.57-.5-1.16-1.01-1.77-1.53-.59-.54-1.21-1.1-1.84-1.68,3.83-.37-3.83-8.06-9.15-14.8-2.68-3.36-4.81-6.45-5.15-7.78-.31-1.28,1.08-1.03,5.28,1.66-4.75-5.46-9.25-11.19-13.44-17.21-.38-.42-.77-.84-1.16-1.25-.73-.77-1.46-1.52-2.21-2.26-.75-.75-1.44-1.55-2.19-2.33.47,1,.88,1.86,1.23,2.6.37.72.68,1.33.93,1.82.49,1,.75,1.59.82,1.88.15.59-.4.01-1.12-.77-1.43-1.56-3.53-3.96-1.87.69-17.27-22.91-28.87-49.4-34.55-76.58-5.71-27.22-5.39-55.1.08-81.34.36-1.2.72-2.4,1.07-3.59.35-1.19.79-2.36,1.16-3.53.75-2.34,1.5-4.67,2.24-6.98,1.67-4.56,3.04-9.13,4.76-13.54,3.13-8.93,6.63-17.53,10.25-26.06l2.8-6.37c.94-2.12,2-4.18,2.99-6.29l1.5-3.16c.49-1.06,1.07-2.07,1.6-3.11,1.08-2.08,2.16-4.16,3.24-6.25,1.16-2.05,2.33-4.1,3.5-6.15l1.76-3.1,1.9-3.03c1.28-2.03,2.57-4.07,3.86-6.11,1.38-1.99,2.77-3.99,4.17-5.99,2.09-2.16,3.97-3.67,5.45-4.82,1.49-1.15,2.63-1.89,3.51-2.3,1.74-.83,2.38-.36,2.43.79.09,2.3-2.13,7.27-2.8,10.18,6.62-7.01,13.59-13.68,21.06-19.77-3.67,3.87-7.12,7.9-10.43,12.02,18.45-17.74,40.54-32.31,65.76-42.41,3.03-1.21,6.07-2.34,9.13-3.4.27-.21.57-.42.9-.65,2.13-1.34,5.35-3.06,8.19-4.72,5.71-3.1,10.01-5.88-.14-5.34-13.43,3.9-26.45,9.13-38.86,15.55-2.46.77-3.5.99-3.57.53-.06-.43.89-1.47,2.64-2.72,1.73-1.28,4.21-2.89,7.11-4.63,2.95-1.63,6.35-3.31,9.83-4.94,2.7-.77,5.07-1.35,7.13-1.91,2.07-.53,3.82-1.09,5.42-1.43,3.17-.75,5.47-1.37,7.51-2.06,2.03-.73,3.85-1.31,5.98-2.2,1.07-.44,2.23-.92,3.54-1.47,1.31-.56,2.79-1.19,4.54-1.78,1.15.82,5.1.2,9.79-.57,4.71-.65,10.14-1.66,14.13-1.71,1.94-.41,3.69-.8,5.32-1.19,1.64-.33,3.16-.64,4.61-.94,1.46-.3,2.85-.58,4.24-.86.7-.13,1.39-.27,2.1-.4.71-.09,1.42-.18,2.14-.28,2.9-.32,6.05-.67,9.9-.65,3.85.12,8.42.2,14.12,1.13-9.14,2.2-4.45,4.48,4.05,6.84,2.12.64,4.49,1.35,6.97,2.09,1.23.36,2.49.73,3.76,1.1,1.25.43,2.52.86,3.78,1.29,1.25.44,2.5.87,3.72,1.29.61.22,1.21.43,1.8.65.59.24,1.16.49,1.73.72,2.27.97,4.35,1.92,6.12,2.83-2.68-.42-5.93-.93-9.57-1.27-1.82-.16-3.73-.32-5.72-.49-.62-.06-1.26-.12-1.89-.18,15.31,2.63,30.24,6.98,44.5,12.94-.01,0-.02-.02-.03-.03,1.58.38,3.11.88,4.66,1.36l4.65,1.45c1.57.46,3.09,1.02,4.62,1.58l4.6,1.68c-10.24-5.8-19.55-10.28-28.23-14.16-8.66-3.96-16.83-6.9-24.85-9.58,11.65,2.82,21.92,5.53,31.55,8.22,2.4.7,4.76,1.39,7.09,2.07,2.33.69,4.58,1.49,6.85,2.2,1.13.37,2.26.73,3.38,1.09,1.12.37,2.2.8,3.3,1.2,2.2.82,4.38,1.63,6.55,2.44,2.15.88,4.26,1.82,6.39,2.75l3.19,1.42c1.06.49,2.08,1.04,3.12,1.57,2.07,1.07,4.15,2.17,6.23,3.32,2.04,1.2,4.05,2.49,6.09,3.81,1.01.67,2.03,1.34,3.05,2.02.98.74,1.97,1.48,2.96,2.24,1.97,1.53,3.98,3.08,5.93,4.78,1.91,1.74,3.83,3.56,5.75,5.45.48.48.96.95,1.43,1.44.46.51.91,1.02,1.38,1.53.92,1.03,1.83,2.09,2.75,3.16,1.17,1.05,2.28,2.06,3.34,3.01,1.03.99,2.02,1.92,2.97,2.8,1.9,1.78,3.74,3.32,5.39,4.84,1.66,1.53,3.21,2.95,4.72,4.34.76.7,1.52,1.38,2.27,2.07.74.69,1.43,1.43,2.15,2.15,2.84,2.93,5.8,5.98,8.71,10.12,3.05,4.04,6.09,9.14,9.39,15.84,1.06,3.12-.38,1.64-1.61.49-.61-.58-1.19-1.07-1.37-.88-.17.17.03,1.04.94,3.18,3.67,8.48,6.02,9.65,8.81,13.37l-.34-3.83c.16,1.92.82,4.67,1.44,7.61.55,2.97,1.15,6.1,1.45,8.69.16,1.3.23,2.45.14,3.35Zm-102.53-101.47c4.69,2.53,9.29,5.23,13.77,8.12.44.09.7.08.54-.16-1.4-1.23-2.82-2.3-4.22-3.25-1.44-.89-2.89-1.64-4.31-2.32-1.42-.68-2.83-1.28-4.22-1.84-.52-.2-1.03-.37-1.55-.55Zm-118.16-23.53c9.46-.98,18.9-1.28,28.27-.94-1-.18-2-.38-2.99-.61,1.04-.88-2.25-1.62-6.81-2.14-1.14-.13-2.36-.26-3.6-.37-1.25-.06-2.52-.1-3.77-.14-2.51-.06-4.93-.12-6.87-.12-3.96,1.44-3.99,2.84-4.23,4.3Zm-177.24,151.62c-.35,1.78-.69,3.55-1.03,5.33,5.39-22.92,14.68-44.78,27.46-64.55,3.61-6.78,8.24-14.38,14.41-22.09-1.43,1.51-2.69,3.16-4.01,4.76-1.3,1.62-2.63,3.21-3.89,4.86l-3.65,5.04-1.81,2.53-1.69,2.61-3.34,5.23c-1.08,1.76-2.06,3.58-3.09,5.36-2.1,3.55-3.87,7.27-5.69,10.94-.95,1.82-1.71,3.72-2.53,5.59-.8,1.88-1.62,3.74-2.39,5.62-.7,1.91-1.4,3.81-2.1,5.71l-1.04,2.85c-.34.95-.61,1.92-.92,2.88-.59,1.92-1.18,3.84-1.77,5.76-.61,1.91-1.01,3.87-1.52,5.79-.47,1.94-1,3.85-1.39,5.78Zm205.7,256.63c.23-.04.47-.08.7-.12-5.45.22-10.89.22-16.3,0,.03.75,1.16,1.52,4.54,2.32,2.34-.83,6.37-1.42,11.07-2.2Zm189.63-281.23c-.53-.33-1.14-.84-1.87-1.59-.8-2.07-1.62-4.07-2.44-5.98-.85-1.9-1.61-3.77-2.58-5.47-.93-1.72-1.86-3.38-2.79-4.97-.93-1.59-1.84-3.13-2.87-4.55-2.03-2.85-3.91-5.56-5.96-8.01-2.06-2.44-4.07-4.74-6.02-6.98-2.07-2.17-4.07-4.28-5.99-6.42-.94-1.09-1.97-2.1-2.95-3.16-.98-1.05-1.95-2.13-2.9-3.23-1.84-2.25-3.84-4.42-5.7-6.87-.95-1.21-1.84-2.51-2.79-3.8-.97-1.28-1.93-2.63-2.87-4.05.02-2.17.03-4.39-.02-6.6l-6.36-5.31c-1.04-.9-2.14-1.73-3.25-2.56l-3.29-2.49c-.27-.55-.14-.95-.49-1.64-.36-.68-1.16-1.69-3.47-3.23-5.1-2.83-3.74-1.08-1.43,1.47.58.64,1.21,1.33,1.84,2.02.59.72,1.16,1.43,1.62,2.07.93,1.29,1.44,2.31.9,2.58-2.12-1.54-4.21-3.1-6.43-4.5-2.2-1.42-4.34-2.89-6.56-4.25l-.74-.43c29.57,21.82,53.63,51.86,68.3,88.48,6.16,15.37,10.3,31.05,12.58,46.74,0-2.04-.06-4.41-.18-6.98-.29-2.86-.7-5.93-1.22-8.97-.39-2.2-.97-4.35-1.58-6.38,1.13,2.99,1.55.57,3.12,4.2-.96-3.03-1.76-5.76-2.41-8.23-.3-1.24-.65-2.39-.97-3.48-.31-1.09-.58-2.13-.82-3.11-.48-1.96-.82-3.69-1.06-5.24-.31-1.52-.5-2.85-.6-4.02-.18-2.2-.04-3.83.27-5.06Z" style="fill:#e51717;"/><path d="m394.43,39.39s1.35,17.57-3.38,26.36c-4.73,8.79-18.92,18.25-18.92,18.25,0,0,8.79,4.05,10.14,16.9,1.35,12.84-3.38,20.27-3.38,20.27,0,0,7.43,3.38,6.08,12.84s-14.19,20.95-14.19,20.95c0,0,6.76,7.43,9.46,13.52,2.7,6.08,3.38,16.22,3.38,16.22l-3.38-.68s4.73,16.22,4.05,22.98c0,0,13.52,16.22,28.38,20.27,14.87,4.05,40.55-6.08,44.6-10.81l3.38,9.46s27.03-22.3,39.2-35.14c12.16-12.84,29.13-34.91,35.86-38.07,6.72-3.16,19.56-12.62,19.56-12.62l12.16-2.7,4.05,22.3-26.36,26.36-49.34,37.17-40.55,36.49-22.3,7.43,3.38-20.95,2.7-6.76s-26.36,8.79-42.58-4.73c-16.22-13.52-22.98-19.6-22.98-19.6l-.84-12.9-5.01-14.25-8.35-20.16-13.52-16.9,14.87-12.16,4.73-12.84-.73-12.93-.62-15.45-17.37-13.29c6.56-3.61,25.48-20.5,25.48-20.5l.68-16.9,4.73-14.87,16.9,7.43Z" style="fill:#fff;"/><path d="m369.96,57.96s19.58-2.02,23.5,2.02c3.92,4.05,11.75,4.05,18.27,4.05s7.83,2.7,15.66,3.37c7.83.67,58.74,4.05,58.74,4.05h-114.87l-1.31-13.49Z" style="fill:#fff;"/><path d="m367.69,103.36s14.17-1.47,17.01,1.47,8.5,2.93,13.23,2.93,5.67,1.95,11.34,2.44,42.52,2.93,42.52,2.93h-83.16l-.94-9.77Z" style="fill:#fff;"/><path d="m369.96,191.71s18.57-1.47,22.28,1.47c3.71,2.93,11.14,2.93,17.33,2.93s7.43,1.95,14.85,2.44c7.43.49,55.7,2.93,55.7,2.93h-108.91l-1.24-9.77Z" style="fill:#fff;"/><path d="m738.7,342.91c-6.96,0-41.78,18.28-41.78,18.28,0,0,9.57,10.44,12.19,11.32s4.35,6.09,4.35,6.09c0,0-13.93,6.96-16.54,17.41-2.61,10.44,1.74,26.98,1.74,26.98l-.19,11.02s61.11,10.74,82.87,4.64c21.76-6.09,33.95-14.8,33.95-14.8,0,0,55.7-1.74,76.59-10.44,20.89-8.7,39.17-28.72,39.17-28.72l10.44-15.67s63.54-33.07,76.59-41.78c13.06-8.7,16.54-20.89,16.54-20.89l10.44-29.59,34.82-43.52-2.61-11.32s-109.67,22.63-126.21,23.5c-16.54.87-26.98,6.09-26.98,6.09l-73.98,36.56-111.41,54.83Z" style="fill:#b42102;"/><path d="m367.63,187.96l5.01,14.25-4.76,1.49-9.49,4.25.25,8.25-1.5,8.25s-9.25-.75-14.74,12.75c-5.5,13.49-28.24,20.49-28.24,20.49l-29.5,9.75-28.74,3.75,6.24,8.5,13.26,4.25,8.75,4.25,6.25,6.5-1.26,15s-11.49,9.74-22.49,15.5c-11.01,5.74-33.25-3.75-33.25-3.75l-3.24,2-25,2.5-14.75-6.75-4-13.49s2-11,4-17.5c2-6.5,5.26-26,5.26-26,0,0-7.26-13.26-15-17-7.75-3.75-34.01-17-50.25-14.24-16.25,2.75-22.49,17.48-22.49,17.48,0,0-7.24-11.99-13-28.49-5.75-16.5,3.5-37.49,3.5-37.49l9.49-9.26,23-5.99,23.99.5-.25-10.5,2.99-10.75,6.51-8.85v-5.41s-7.01-6.75-7.01-6.75l7.74-9.99,12.5-7.75,13.63-3.72,2.87-.78s5.33-16.51,31.57-40.26c26.24-23.75,92.15-40.22,105.65-43.98,13.51-3.75,37,9.74,41.25,30.25,4.25,20.49-25.75,34.99-25.75,34.99l7.24,6.75,8.25,10.5,2.5,11.49-1.5,18.25-2.5,13-.83.62-11.92,8.87,11.51,11.26,3.99,12.74,4.25,10.25Z" style="fill:#e2d8cf;"/><path d="m334.66,220.61s-3.87,7.74-6.91,12.16c-3.04,4.42-9.95,7.74-11.33,9.4-1.38,1.66,7.46,4.15,11.88.55s6.63-13.82,6.63-17.41-.28-4.7-.28-4.7Z" style="fill:#fff;"/><path d="m126.61,228.85s27.36.83,42.29,10.78c14.93,9.95,60.11,31.51,85.82,24.05,25.7-7.46,43.95-27.78,46.43-39.8,2.49-12.02,0-24.88,0-24.88l-5.39-12.44-7.76-10.32s-10.07-8.33-15.87-7.5c-5.8.83-24.46,7.05-24.46,7.05l-6.63,2.49-23.63,8.29s-32.75-2.9-39.8-5.8c-7.05-2.9-27.36-14.1-27.36-14.1l-5.39-2.9s-39.39,0-46.02,15.75c-6.63,15.75-6.63,41.04-2.07,49.75,4.56,8.71,11.19,15.75,11.19,15.75l18.66-16.17Z" style="fill:#f49000;"/><path d="m266.58,129.89s8.75-2.66,15.25.35c8.57,3.97,18.64,7.05,28.77,17.56,10.13,10.52,15.97,22.59,18.7,24.15s11.52,1.63,17.44,2.76c5.93,1.13,14.89,5.81,14.89,5.81l6.62,9.74-1.22,7.71s-7.66-9.13-12.41-10.44c-11.3-3.12-13.24,2.73-15.97,1.56s-8.18,4.67-4.28,12.07c3.9,7.4,17.55,14.86,18.32,22.03.77,7.18-3.91,5.23-3.91,5.23l-5.49-10.18s-4.63-6.96-7.75-5.4-3.9,7.8-12.47,17.15c-8.57,9.35-12.44,10.23-21.28,12.16-8.68,1.9-14.37,1.11-14.37,1.11l10.73-14.84,7.79-19.87-1.56-6.23s-15.58-23.76-16.36-26.1c-.78-2.34-8.18-5.06-8.18-5.06l-4.67-4.28-3.51-.78s.46-16.03-4.44-23.6c-4.9-7.56-7.53-9.73-7.53-9.73l6.91-2.9Z" style="fill:#fff;"/><path d="m333.64,193.15s5.16-2.45,11.61,3.34c6.44,5.79,8.77,4.62,8.77,4.62l.97-1.16-6.79-3.69s-2.52-1.75-4.46-4.66c-1.94-2.91.58-4.46.58-4.46l-.97-2.52-5.24-.19-4.08,1.75-.39,6.99Z" style="fill:#fff;"/><path d="m205.9,130.32s-9.41,8.66-11.15,14.32c-1.74,5.66-1.04,17.45-1.47,19.62s-7.83,16.1-7.83,16.1l8.7,2.61s-.44-10.44,3.05-23.94c3.48-13.49,6.09-24.81,25.68-33.07,19.58-8.27,36.12-1.31,38.73-2.61s2.61-12.19-3.48-14.36c-6.09-2.18-22.63.44-32.2,7.83-9.57,7.4-18.28,15.67-18.28,15.67l-1.74-2.18Z" style="fill:#fff;"/><path d="m186.53,116.23c-3.35-1.45-7.22-1.01-10.18,1.12-2.51,1.8-5.04,4.06-4.68,5.67.69,3.09,9.28,1.38,13.75,3.44s7.22,5.5,8.6,5.16c1.38-.34,4.47-7.56,2.06-9.97-1.46-1.46-5.81-3.8-9.55-5.41Z" style="fill:#fff;"/><path d="m156.17,152.47l.39,17.71,10.23,9.05,13.78-6.69s13.78-18.89,8.66-29.52c-5.12-10.63-17.32-8.66-17.32-8.66l-9.84,5.12-5.9,12.99Z" style="fill:#fff;"/><ellipse cx="174.96" cy="158.43" rx="12.56" ry="16.79" style="fill:url(#i);"/><path d="m211.27,142.24s-9.45,6.3-9.05,20.86c.39,14.56,1.97,19.68,1.97,19.68l14.77,2.5,19.47-4.47,13.78-6.3,6.3-14.17v-16.92l-4.33-9.84-8.24-3.08-9.87-1.25-12.2,4.33-8.27,2.36-4.33,6.3Z" style="fill:#fff;"/><path d="m220.66,142.05s-11.73,10.16-13.03,21.89c-1.3,11.73,4.95,17.72,7.82,19.54,2.87,1.82,10.42-.26,10.42-.26l3.49-2.24-3.62-3.62-4.04-11.07,2.35-10.16,4.95-6.25,10.42-2.61s-2.61-16.16-18.76-5.21Z" style="fill:url(#j);"/><path d="m164.62,220.68c.63.31,14.14,3.46,22.62,6.91,8.48,3.46,42.1,19.48,57.5,17.59,15.4-1.89,30.48-9.74,33.62-20.74s1.26-22.62,1.26-22.62l-2.51-4.71-6.6-4.71-8.8,1.89-13.82,8.8-8.8,4.4-20.42,5.66-23.56,2.51-18.54.31-11.94,4.71Z" style="fill:#fff;"/><path d="m362.14,101.47l2.5,11.49-1.5,18.25-2.5,13-.83.62-22.93,10.19s-19.68-19.7-26.91-22.91c-7.24-3.21-33.76-14.46-34.97-14.46s-4.42-8.04-9.64-11.25c-5.23-3.22-14.07-3.22-28.13-.81-14.07,2.41-26.12,15.67-26.12,15.67l-2.01-3.62-4.01,2.41-4.78,3.21-1.48-3.47-7.8-10.98.04-4.81,2.87-.78s5.33-16.51,31.57-40.26c26.24-23.75,92.15-40.22,105.65-43.98,13.51-3.75,37,9.74,41.25,30.25,4.25,20.49-25.75,34.99-25.75,34.99l7.24,6.75,8.25,10.5Z" style="fill:#b42102;"/><path d="m213.89,98.37s8.78-18.01,28-31.66c19.22-13.65,63-33.03,87.18-30.71,24.18,2.32,22.77,16.14,11.43,22.71-11.34,6.58-35.52,4.26-40.04,7.23-4.53,2.98-1.59,5.78-6.14,7.61-4.55,1.83-23.31-.61-41.88,5.21-18.42,5.77-31.84,11.41-38.54,19.6Z" style="fill:#e52107;"/><path d="m357.55,93.94c-4.32-2.88-14.75-5.75-14.75-5.75l-14.03-.72-56.25,11.07s-12.81,2.6-13.17,4.04c-.36,1.44,30.93,6.83,39.56,8.27,8.63,1.44,13.31-5.4,24.82-5.04,11.51.36,22.3,4.68,27.33,2.88,5.04-1.8,10.79-11.87,6.47-14.75Z" style="fill:#e52107;"/><path d="m332.01,125.59s-14.39.72-11.15,2.88c3.24,2.16,23.02,8.99,30.21,7.91,7.19-1.08,13.31-7.19,9.71-9.35s-9.35-4.32-9.35-4.32l-19.42,2.88Z" style="fill:#e52107;"/><path d="m191.31,255.18l1.8,21.63-4.96,21.18v15.32l21.18,15.32,13.97-5.86,10.1-1.32s25.49,6.28,33.6,1.77c8.11-4.51,22.98-16.22,22.98-16.22l-5.41-17.12-12.62-9.01-11.71-3.6s-5.86-9.01-10.81-11.71c-4.96-2.7-8.56-2.7-8.56-2.7l-29.74-.9-6.76-6.31-13.07-.45Z" style="fill:#b42102;"/><path d="m229.61,266.44s3.6,9.46,4.96,18.47c1.35,9.01,13.97,20.27,18.92,19.82s3.15-7.66,11.26-12.16c8.11-4.51,13.52-5.86,13.52-5.86l-10.36-5.41-11.71-6.76-6.31-7.21-20.27-.9Z" style="fill:#e52107;"/><path d="m205.28,258.33c0,1.35.9,9.91-.45,17.57-1.35,7.66-7.66,17.12-5.86,21.18,1.8,4.05,12.16,12.62,18.02,4.05,2.41-3.53,2.25-15.77,2.25-15.77,0,0,3.15-7.21.45-15.77l-2.7-8.56-11.71-2.7Z" style="fill:#e52107;"/><path d="m109.9,242.63s0-20.3,13.81-32.08c13.81-11.78,32.48-15.84,42.23-14.62,9.75,1.22,37.36-4.06,43.45-6.09s7.71-6.09,7.71-6.09h-5.68l-13.81.41-16.65-1.62-15.84-7.31-10.21-7.51-13.35-3.05-16.24,2.03-17.41,6.51-11.42,14.2-5.68,15.02,2.03,20.71,17.05,19.49Z" style="fill:#face09;"/><path d="m98.81,212.62s9.66,7.08,8.5,1.27c-1.27-6.37,1.7-27.18,7.22-33.13,0,0,5.18-3.78,15.72-5.1,10.19-1.27,17.42-.85,17.42-.85,0,0,10.62,6.8,18.69,8.5s19.54-.85,19.54-.85l-19.96-5.95-11-8.8-7.26-1.4s-28.88.85-34.41,3.4c-5.52,2.55-11.47,6.8-11.47,6.8l-3.35,5.95-5.57,21.66,5.95,8.5" style="fill:url(#k);"/><path d="m220.35,189.44s-15.02,4.47-26.39,7.31c-11.37,2.84-21.93,3.65-25.18,4.06s15.88,5.95,34.51,4.47c25.58-2.03,40.92-12.6,47.82-17.07,6.9-4.47,16.62-6.44,19.86-6.95,6.29-.99,6.63-10.9,2.98-11.31s-53.6,19.49-53.6,19.49Z" style="fill:#face09;"/><path d="m284.1,184.16s-2.03,4.87-1.62,6.09,6.9,15.02,6.09,24.77c-.81,9.75-10.56,25.18-17.46,29.64-6.9,4.47,19.9-8.12,23.14-25.58,3.96-21.29-4.47-31.67-10.15-34.92Z" style="fill:#face09;"/><path d="m141.83,177.11s-6.97,1.8-7.25,4.08c-.29,2.28.86,4.28-.29,5.13-1.14.86-2.85,2.28-3.71,3.42-.86,1.14,5.42-.57,7.98-1.43s15.51-.32,15.51-.32l-7.24-4.24-5.01-6.65" style="fill:url(#l);"/><path d="m819.09,187.39l-32.27,36.88,42.26-4.61,3.07,13.83-19.2,31.5-29.2,19.2-1.54,15.37s-6.14,10.76-25.51,28.34c-19.37,17.6-54.39,25.44-54.39,25.44l-2.3,6.15,14.02,10.67,2.11,1.62.81,1.78,1.42,3.13s-4.51,3.64-9.34,8.75c-2.06,2.16-4.18,4.6-6.03,7.12-6.23,8.5-4.52,13.02-5.07,17.63-.12,1.02-.16,2.76-.15,4.85.04,7.33.7,18.97.7,18.97l-14.6,11.53-35.34-28.43-2.92-12.2s-4.76-11.62-10.14-20.07c-5.38-8.45-14.6-1.54-14.6-1.54l-13.83,9.22s-16.13-9.98-26.89-12.29c-10.75-2.3-69.14-.77-69.14-.77l-5.38-6.14c-5.38-6.15-15.37-8.46-15.37-8.46l-14.59,3.85-2.31,19.97c-2.3,19.98-21.51,13.83-21.51,13.83l-36.33,35.75-16.68-11.16-24.59-26.89-14.6-25.36-5.38-19.97-10.75,18.44-3.84,1.53-7.69-31.5s-4.61-20.74-10.75-36.11c-6.15-15.36-27.66-33.8-29.97-33.8l3.08-9.22c2.3,0,32.27-16.9,32.27-16.9l22.14-18.89,9.87-12.23,8.71-1.93,26.12,18.44,46.1,9.22-11.53,14.6,9.99,5.37,29.19-4.61,86.82-63s179.01-38.41,212.05-46.09c33.04-7.69,90.66-34.58,90.66-34.58l-1.54,22.28-36.11,51.48Z" style="fill:url(#m);"/><path d="m350.69,264.17s-8.3-9.48-13.31-2.16c-5.01,7.32,5.4,14.65,8.1,20.05,2.7,5.4-.39,10.02-.39,10.02,0,0,11.18-3.85,11.56-11.95.39-8.1-5.96-15.96-5.96-15.96Z" style="fill:#fff;"/><path d="m372.84,266.25s-5.4-8.87-9.25-7.71c-3.85,1.16-5.01,9.64-1.93,15.03,3.08,5.4,8.87,4.63,8.48,10.41-.39,5.78-5.01,9.64-5.01,9.64l12.72-5.4,2.31-6.17s-2.31-10.79-7.32-15.8Z" style="fill:#fff;"/><path d="m362.04,295.16s-4.63,2.31-3.85,6.17,2.7,5.78.39,8.48c-2.31,2.7-5.4,3.85-5.4,3.85l7.32,3.85,12.72-6.55,2.7-10.41-2.7-7.32-11.18,1.93Z" style="fill:#fff;"/><path d="m355.88,230.4s1.16,3.08,4.63,8.48,16.58,9.25,17.73,10.02-5.01,1.54-8.48,1.16,5.01,4.63,11.95,6.94c6.94,2.31,15.42-1.54,18.5-1.54s6.17.39,6.17.39l13.88,4.24,16.58-8.87.77-8.87-31.22-1.16-27.37-15.8-15.03-11.18-8.1,16.19Z" style="fill:#fff;"/><path d="m388.36,268.25s10.4,14.56,17.89,22.47,17.47,13.31,17.47,13.31l1.66-15.39v-6.66s-4.58-4.58-7.49-4.58-4.16,3.33-7.9.42c-3.74-2.91-2.91-3.33-7.07-2.91-4.16.42-12.06-3.74-14.56-6.66Z" style="fill:#fff;"/><path d="m368.53,357.04s-6.3-14.69-5.6-25.89,10.29-20.19,10.29-20.19c0,0,2.3,5.49,5.1,11.79,2.8,6.3,8.4,8.4,16.79,16.79,8.4,8.4,5.6,11.89,11.19,18.19,5.6,6.3,24.49,3.5,32.88,11.19,8.4,7.7,19.59,20.99,19.59,20.99l-14.69,11.19-15.39,8.4-18.89-9.8-25.19-17.49-16.09-25.19Z" style="fill:#fff;"/><path d="m374.4,296.51s12.51,19.28,19.28,27.1c6.77,7.82,11.99,13.03,20.85,20.85,8.86,7.82,18.24,12.51,18.24,12.51,0,0-11.99-13.55-14.59-19.28-2.61-5.73-1.56-10.94-6.25-13.55-4.69-2.61-7.82-2.08-9.9-5.73s-7.82-25.54-12.51-28.66c-4.69-3.13-11.47-6.25-11.47-6.25l-3.65,13.03Z" style="fill:#fff;"/><path d="m461.59,268.59s5.82,4.16,23.3.83c17.47-3.33,45.76-27.46,59.91-29.95,14.14-2.5,138.95-24.13,176.39-33.28,37.44-9.15,54.92-14.98,79.04-34.11,24.13-19.14,46.59-43.27,46.59-43.27l-12.48,3.33-67.4,19.97-69.06,9.98-147.27,33.28-28.29,19.97-60.74,53.25Z" style="fill:#fff;"/><path d="m426.64,306.03s-.83,8.32,9.15,13.31c0,0-2.5-10.82,4.16-14.98,6.66-4.16,26.63-9.98,21.63-19.14-4.99-9.15-17.47-14.98-17.47-14.98l-12.48,6.66s-8.32,20.8-4.99,29.12Z" style="fill:#fff;"/><path d="m468.25,316.85s0,11.65,6.66,14.98c0,0,2.5-11.65,9.15-13.31,6.66-1.66,13.31,2.5,23.3-4.16,9.98-6.66,20.8-22.47,34.11-24.96s77.38-9.15,104.01-15.81c26.63-6.66,53.25-24.13,53.25-24.13l-6.66-1.66-44.1,4.99-67.4,8.32-39.94,5.82-21.63,12.48-23.3,17.47s-23.3,8.32-27.46,19.97Z" style="fill:#fff;"/><path d="m677.09,286.9s55.75-4.16,89.86-19.97c34.11-15.81,60.74-37.44,60.74-37.44l-14.98-1.66-76.55,9.98-31.62,5.82-27.46,43.27Z" style="fill:#fff;"/><path d="m509.02,341.81s2.5,8.32,7.49,9.98c0,0,4.16-10.82,9.98-11.65,5.82-.83,11.65-1.66,15.81-5.82s1.66-5.82,9.15-5.82,29.95,5.82,59.08-1.66c29.12-7.49,60.74-22.47,60.74-22.47l-4.99-4.16s-2.5-4.99-23.3-1.66c-20.8,3.33-95.69,10.82-95.69,10.82l-12.48,8.32-14.14,9.15s-14.14,7.49-11.65,14.98Z" style="fill:#fff;"/><path d="m631.33,337.65c3.33,1.66,30.79,10.82,72.39-2.5,41.6-13.31,74.05-40.77,74.05-40.77l-2.5-4.16-41.6,12.48-62.4,13.31-12.48-4.16-27.46,25.79Z" style="fill:#fff;"/><path d="m765.68,337.69s20.02,5.22,34.82,3.48c14.8-1.74,58.32-25.24,83.56-36.56,25.24-11.32,48.74-26.11,48.74-26.11,0,0,42.65-.87,73.11-10.44,30.46-9.57,73.98-34.82,73.98-34.82l-23.5-.87-79.21,8.7-45.26,8.7-166.24,87.91Z" style="fill:#e52107;"/><path d="m749.14,342.04c2.61.87,17.41,6.96,25.24,6.96s14.8-.87,14.8-.87c0,0-10.44,5.22-22.63,6.96-12.19,1.74-28.72-.87-28.72-.87l-15.67-8.7,26.98-3.48Z" style="fill:#e52107;"/><path d="m763.07,372.5c-2.61,0-17.41,4.35-24.37,6.96-6.96,2.61,19.15.87,33.95,1.74,14.8.87,60.06-6.09,83.56-10.44,23.5-4.35,75.72-24.37,75.72-24.37,0,0,19.15-4.35,43.52-8.7,24.37-4.35,57.45-23.5,57.45-23.5l-8.7-5.22-69.63,10.44-53.09,13.06-138.39,40.04Z" style="fill:#e52107;"/><path d="m723.03,403.84l-16.54-.87s24.37,17.41,53.09,18.28c28.72.87,76.59-15.67,76.59-15.67,0,0,15.67,4.35,36.56,1.74,20.89-2.61,53.96-13.93,53.96-13.93l-1.74-7.83-63.54-.87-29.59,6.96-75.72,12.19h-33.07Z" style="fill:#e52107;"/><path d="m717.95,372.06l-.99,1.49-7.93,11.88c-2.06,2.16-4.18,4.6-6.03,7.12-6.23,8.5-4.52,13.02-5.07,17.63-.12,1.02-.16,2.76-.15,4.85l-4.36-4.76s-4.56-.57-10.26-2.29c-5.7-1.71-11.41-5.7-11.41-5.7,0,0,5.13-.57,9.13-1.14,3.99-.57,7.98-6.28,7.98-6.28,0,0-4.56.57-10.84,0-6.28-.56-7.42.57-13.68.57s-14.84-11.41-14.84-11.41c0,0,11.41,2.86,16.54,1.71s10.26-5.7,10.26-5.7c0,0-8.55.57-15.4-.57-6.83-1.14-13.11-2.85-20.53-6.28-7.41-3.42-15.4-10.84-17.68-11.97l67.87-1.71,9.69,3.99,13.77,6.66,3.91,1.9Z" style="fill:#fff;"/><path d="m469.48,374.97c0,3.13-3.91,14.85-3.91,14.85l-25.8,21.11s-39.09,36.74-42.21,70.36c-3.13,33.61.78,55.5,14.85,82.86,14.07,27.36,7.04,28.14,43.78,57.07,36.74,28.92,85.21,33.61,112.57,36.74,27.36,3.13,144.62-1.56,144.62-1.56l24.23,7.82,46.9-4.69-13.29-26.58-10.16-30.49-3.13-27.36,1.56-14.85-3.13-4.69-26.58,1.56,1.56-14.07s7.04-10.16,3.91-15.63c-3.13-5.47-8.6-10.94-8.6-10.94l-7.82-3.13s-28.14-51.59-37.52-66.45c-9.38-14.85-37.52-39.09-37.52-39.09l-6.25-14.07-7.04-10.16s-7.82-3.91-12.51-1.56c-4.69,2.35-9.38,7.04-9.38,7.04h-3.13l-93.03-12.51-6.84-3.21-15.37-8.46-14.59,3.85-6.19,6.26Z" style="fill:url(#n);"/><path d="m742.8,572.2l.27,6.85-5.27,4.74h-27.38s3.16-10.53,5.79-12.11l26.59.53Z" style="fill:url(#o);"/><path d="m135.95,243.01s7.6-3.04,16.73.76c9.12,3.8,23.57,14.45,26.61,15.21,0,0,5.32,10.64,3.04,18.25-2.28,7.6-19.77,15.97-15.97,30.41,3.8,14.45,8.36,25.85,27.37,32.7,19.01,6.84,38.78-.76,38.78-.76,0,0,10.64,5.32,25.09,3.8,14.45-1.52,44.1-16.73,45.62-34.22,0,0,6.84,6.84,10.64,22.81,3.8,15.97-1.52,33.46,6.84,45.62,8.36,12.17,22.05,25.85,35.74,28.89,0,0,8.36,12.93,17.49,22.81,9.12,9.88,28.85,28.47,28.85,28.47l8.41-16.31-8.36-12.93-35.74-41.82-12.93-28.13-15.21,19.77-.76-11.41-17.49-57.03-21.29-22.81-12.17-8.36,2.28,21.29-6.84,15.97-25.09,11.41-19.77-6.84-13.69,5.32-18.99.05-12.18-9.94-8.36-13.69s5.32-13.69,6.84-19.77c1.52-6.08,3.04-26.61,3.04-26.61,0,0-36.5-21.29-41.82-23.57-5.32-2.28-17.49-3.04-17.49-3.04l.76,13.69Z" style="fill:#fff;"/><path d="m276.06,324.9s7.15-1.53,8.58,1.53,4.29,3.05,6.68,3.05,2.86,2.03,5.72,2.54c2.86.51,21.46,3.05,21.46,3.05h-41.96l-.48-10.17Z" style="fill:#fff;"/><path d="m516.26,445.86s-57.25,3.9-72.86,44.67c-15.61,40.77,16.05,73.73,22.99,80.23,6.94,6.51,37.3,36.86,75.46,30.36,38.16-6.51,47.27-24.29,47.27-24.29l13.88-26.89,3.95,17.01,10.37-19.61-.43-26.46-3.9-16.91-13.88-22.55s-30.36-39.03-82.83-35.56Z" style="fill:url(#p);"/><path d="m457.94,578.43c1.92.1,32.1,28.93,76.86,32.55,44.76,3.62,155.52-5.43,155.52-5.43l1.81,12.66-156.88,3.16s-45.21-4.07-63.29-17.18c-18.08-13.11-22.61-26.22-14.02-25.77Z" style="fill:url(#q);"/><path d="m422.31,450.59s-17.38,29.46-10.62,65.67c6.76,36.22,26.08,60.84,30.42,64.22,4.35,3.38,0-10.14,2.41-11.11s-1.45-10.62-1.45-10.62c0,0-13.28-31.49-15.45-53.6-2.41-24.63,14.51-59.33,24.4-69.02,9.89-9.69-14.74-10.17-29.71,14.45Z" style="fill:url(#r);"/><path d="m539.44,406.67s0,4.68,3.28,6.08,7.02.47,14.51,4.21c7.49,3.74,28.08,14.98,33.23,18.25s8.42,6.55,14.51,12.17c6.08,5.62,17.79,15.45,20.59,16.38,2.81.94,5.15-1.4,13.57,7.02,8.42,8.42,17.32,21.06,20.13,26.21,2.81,5.15,3.28-7.02-13.11-29.02-16.38-22-34.64-31.83-52.42-43.06-17.79-11.23-54.29-18.25-54.29-18.25Z" style="fill:url(#s);"/><path d="m633.23,424.8s29.39,20.43,44.45,51.61c15.05,31.18,16.49,48.39,16.85,54.48s10.04,8.96,2.51-24.73c-7.53-33.69-29.39-58.78-38.35-67.03-8.96-8.24-30.11-18.28-25.45-14.34Z" style="fill:url(#t);"/><path d="m1074.27,492.76c-7.11,2.96-8.89,11.85-8.89,11.85,0,0-23.11,20.14-33.77,23.7-10.66,3.55-29.62,6.52-29.62,6.52l-6.52-12.44,7.7-21.33s-21.92.59-30.81,13.03c-8.89,12.44-8.29,23.11-16,27.85-7.7,4.74-20.74,11.26-20.74,11.26l-13.03-2.96.59-11.85,1.78-14.22s-24.29,7.7-37.92,21.92c-13.63,14.22-22.51,17.18-22.51,17.18l-13.03-4.74s-9.48-4.15-7.7-7.7c1.78-3.55,10.66-11.85,10.66-11.85,0,0,21.92-2.96,23.11-4.74s14.81-14.81,13.63-29.03l-15.4,7.7-16,4.15-18.96,3.55-16,1.78-26.07,15.4c-1.78,2.96-15.4,31.99-15.4,31.99l-16.59,13.63-6.52,16,7.76,28.66,8.83,11.63,24.88-2.37,23.11,11.85,13.03,2.96,24.29-4.15s-23.7-19.55-2.96-26.07c20.74-6.52,36.73,2.37,36.73,2.37l36.73,7.11,9.48-7.11s-11.26-10.66.59-16.59c11.85-5.92,32.58-1.78,40.29,0,7.7,1.78,28.44-.59,28.44-.59l7.11-7.11-8.29-17.77s3.55-7.7,14.81-12.44c11.26-4.74,30.81-12.44,30.81-12.44l9.48-13.63s20.74-33.18,25.48-36.73c4.74-3.55,27.85-21.92,27.85-21.92,0,0-37.32,4.74-44.43,7.7Z" style="fill:url(#u);"/><path d="m803.76,582.5c3.81.72,7.57,1.53,11.32,2.6,3.14.9,4.48,2.4,6.91,4.41,2.13,1.76,5.25,2.41,7.91,2.9,1,.18,1.97.01,2.95.16,1.35.21,2.5,1.07,3.71,1.65,2.9,1.39,5.75.11,8.74.25,1.7.08,5.4.27,6.3,2.17,1.15,2.43-3.57,6.29-5.05,7.37-2.42,1.77-5.13,2.62-7.9,3.68-2.6,1-4.97,2.32-7.37,3.75-3.92,2.34-8.23,3.92-11.48,7.23-4.32,4.41-7.03,10.34-13.88,11.38-1.63.25-3.29.02-4.92.05-2.8.05-5.33.85-8.07,1.32-4.2.72-7.51,1.7-11.11,4.12-3.44,2.3-6.08,3.55-9.69,1.13-2.49-1.68-4.35-4.55-6.07-6.99-2.73-3.87-4.53-8.25-5.54-12.85-1.53-6.95-2.09-15.9-.8-23.02.23-1.26,4.69-11.63,2.84-12.46,1.89-2.02,7.16-2.5,9.53-2.7,10.32-.84,19.91,1.72,29.93,3.53.58.11,1.17.21,1.75.32Z" style="fill:url(#v);"/><path d="m835.19,538.07s-5.13,19.39,5.7,27.37c10.84,7.98,22.81,6.27,22.81,6.27,0,0-7.98,6.27-17.68,6.27s-19.39,0-22.24-7.98c-2.85-7.98-4.56-15.97-2.28-21.1s13.69-10.84,13.69-10.84Z" style="fill:#f18508;"/><path d="m1055.73,271.69c8.44-3.04,18.5-6.86,30.11-11.6-7.99,19.46-25.33,32.03-39.27,39.39,10.58-2.44,17.57-4.13,17.57-4.13,0,0-7.23,20.8-42.5,40.69-19.01,10.72-39.58,19.34-54.52,25.01,15.5-3.12,31.97-6.62,39.15-8.73,0,0-18.99,17.18-44.31,28.93-5.94,2.76-11.17,4.81-15.71,6.35-.45.57-.93,1.16-1.47,1.79-5.43,6.33-35.26,33.46-67.82,37.98-32.55,4.52-59.68,1.81-59.68,1.81,0,0-23.51,18.08-53.35,20.8-29.84,2.71-78.67-11.75-78.67-11.75l12.66-12.66s37.98,13.56,71.43,9.04c33.46-4.52,45.21-18.08,45.21-18.08,0,0,18.99,5.43,50.64-.9,31.65-6.33,52.44-20.8,52.44-20.8,0,0-8.14,2.71-22.61,3.62-14.47.9-53.35-3.62-53.35-3.62,0,0-32.55,11.75-66.01,12.66-25.39.69-43.5-1.75-50.74-2.97-2.3-.39-3.51-.65-3.51-.65,29.84-1.81,37.98-5.43,42.5-7.23,4.52-1.81,10.85.9,20.8,0,9.95-.9,54.25-15.37,59.68-17.18,5.43-1.81,22.89,7.41,42.5,3.62,28.03-5.43,45.21-24.41,45.21-24.41,0,0,26.22-3.62,51.54-15.37,25.32-11.75,39.79-25.32,39.79-25.32,0,0-30.74,8.14-49.73,9.95-18.99,1.81-45.21,5.43-45.21,5.43,0,0-63.3,24.41-90.42,28.93-21.31,3.55-56.55,8.22-70.7,10.06-3.85.52-6.16.79-6.16.79,0,0,25.32-7.23,33.46-12.66,8.14-5.43,9.04-9.04,13.56-8.14,4.52.9,9.95,3.62,18.99.9,9.04-2.71,76.86-34.36,85-40.69,8.14-6.33,18.08-13.56,18.08-13.56,0,0,56.06-5.43,84.09-18.08,16.41-7.41,49.82-37.8,57.28-44.19q-44.29,8.86-68.13,13.45c-23.51,4.52-68.72,5.43-68.72,5.43,0,0-68.72,39.79-96.75,53.35-28.03,13.56-63.29,26.22-78.67,31.65-15.37,5.43-47.92,13.56-47.92,13.56l45.21-26.22c1.77-.59,21.98-9.63,46.85-21.11,12.27-8.04,34.56-23.02,49-34.95,20.8-17.18,26.22-25.32,31.65-31.65,3.19-3.72.25,17.49-3.5,27.63,28.9-17.42,54.13-35.77,54.13-35.77,0,0,41.17,4.13,86.8-3.62,47.92-8.14,80.47-16.28,89.52-26.22,0,0-15.37,31.65-37.98,55.16-4.82,5.02-10.85,9.83-17.45,14.32Z" style="fill:#5c0300;"/><path d="m331.87,287.23c-2.9-3.55-4.44-7.68-4.66-11.62.69,1.82,1.69,3.6,3.03,5.24,5.57,6.82,14.65,8.61,20.3,4s5.71-13.87.15-20.69c1.6,1.11,3.11,2.46,4.44,4.09,5.01,6.14,5.99,14.01,3.01,19.62,5,2.72,10.76,2.69,14.78-.59,5.65-4.61,5.71-13.87.15-20.69,1.6,1.11,3.11,2.46,4.44,4.09,6.33,7.75,6.25,18.29-.17,23.53-.84.68-1.74,1.24-2.69,1.67,5.26,7.58,4.85,17.21-1.2,22.15-6.42,5.24-16.76,3.2-23.09-4.55-2.9-3.55-4.44-7.68-4.66-11.62.69,1.82,1.69,3.6,3.03,5.24,5.57,6.82,14.65,8.61,20.3,4,4.05-3.31,5.21-9,3.5-14.48-5.5,1.46-12.07-.53-16.91-5.45-.21.2-.42.41-.65.6-6.42,5.24-16.76,3.2-23.09-4.55Zm87.62,106.82c-2.84-3.31-11.35,1.42-15.61-1.89-4.26-3.31-10.4-14.66-12.77-16.55-2.36-1.89-4.26,2.36-9.46-2.36-5.2-4.73-13.24-15.61-13.24-15.61,0,0,2.84,16.08,12.77,27.9,9.93,11.82,30.27,27.9,35,30.74,4.73,2.84,6.62,1.89,6.62,1.89l9.93-12.77s-10.4-8.04-13.24-11.35Zm-51.54-14.7c-9.06-15.29-11.89-33.41-11.89-33.41-8.49,6.8-12.46,19.26-12.46,19.26-3.4-3.4-6.23-13.59-7.36-23.22-1.13-9.63-4.53-25.49-14.72-42.48-7.86-13.11-21.11-25.19-26.76-30.04,17.49-5.38,31.39-16.76,31.39-16.76-11.25,4.5-24,3.53-28.05,2.63s-5.86,3.15-9.91,4.51c-4.05,1.35-13.97,1.35-13.97,1.35l-21.63,1.8.9,7.66,9.01,4.51s.14-.01.38-.04l5.03,6.2,17.93,2.9s23.22,6.8,31.15,23.79c7.93,16.99,8.49,52.1,11.33,62.86,2.83,10.76,19.26,19.82,19.26,19.82-.57-6.8,3.96-20.95,3.96-20.95,0,0,7.93,20.39,17.56,35.11,9.63,14.72,40.95,40.66,40.95,40.66l5.49-7.25,2.27-14.16c-6.8-1.7-40.78-29.45-49.84-44.74Zm324.55,48.01c-6.33,6.33-12.66,9.04-12.66,9.04l10.85,17.18s11.76-16.28,12.66-26.22-5.43-17.18-5.43-17.18c0,0,.9,10.85-5.43,17.18Zm113.98-210.32c13.66-3.76,30.03-8.84,40.56-14.11,0,0-2.79,45.32-25.1,66.24-7.89,7.39-19.86,14.04-33.16,19.85-2.79,9.04-7.73,23.06-13.83,31.71-5.25,7.47-37.25,27.6-66.46,39.59,1.49,1.7,3.37,3.66,5.26,5.08,1.81,1.36,4.71,2.41,7.39,3.17,3.69-2.51,7.09-4.57,8.64-4.8,3.59-.51,14.13,1.68,11.56,5.78-13.88,0-13.26,10.7-19.41,11.72-6.15,1.02-17.41,9.73-18.95,11.27-1.09,1.09,1.54-11.78,5.63-14.85.7-.52,1.68-1.27,2.83-2.13-2.46-.54-5.39-1.33-8.46-2.48-4.39-1.65-8.03-4.61-10.48-7.01-4.02,1.21-7.86,2.18-11.42,2.8-32.07,5.58-93.16-14.42-93.16-14.42-7.16-3.86-33.05-6.61-42.97-6.61s-18.18,5.51-18.18,5.51c2.75-9.36,12.67-11.02,21.48-12.67,8.81-1.65,42.97,2.75,42.97,2.75,0,0,22.84-4.57,41-15.12,18.63-10.82,33.91-26.75,33.91-26.75-2.45.92-10.86,1.5-17.85,1.83-32.55,8.38-96.3,10.54-106.09,14.15-10.47,3.86-8.81,7.71-12.67,11.57-3.86,3.86-8.81,1.65-14.32,4.96-5.51,3.31-6.06,9.36-6.06,9.36-6.06-4.41-3.31-12.12-.55-14.87,2.75-2.75,14.87-5.51,16.53-7.71,1.65-2.2,9.92-11.57,14.32-13.77,4.41-2.2,33.87-2.89,49.03-4.41,22.03-2.2,50.59-6.6,67.75-14.32,21.07-9.48,35.59-32.56,36.81-34.55-30.6,4.36-61.08,7.47-79.43,8.49-41.63,2.31-71.7,10.02-77.87,12.34-6.17,2.31-34.69,22.36-37.01,25.44-2.31,3.08-12.34,6.94-18.5,8.48-6.17,1.54-11.56,10.79-11.56,10.79-2.31-5.4-.77-13.88,3.08-18.5,3.85-4.63,16.19-6.17,21.59-8.48,5.4-2.31,33.92-25.44,39.32-29.3,5.4-3.85,39.32-6.94,72.47-11.56,33.15-4.63,130.29-16.96,168.07-37.78,37.78-20.82,70.93-79.41,70.93-79.41,0,0-40.09,17.73-92.52,26.98-52.43,9.25-159.59,30.07-193.51,43.17-33.92,13.11-95.6,67.84-103.31,71.7-7.71,3.85-8.48,0-16.96,5.4-8.48,5.4-11.56,26.98-11.56,26.98-6.17-3.85-7.71-22.36-3.08-31.61,1.69-3.37,5.73-6.33,10.19-8.74-6.64-1.32-13.8-5.96-13.8-5.96l15.56-9.24s3.89,2.43,10.21,2.43c1.15,0,2.5-.15,3.95-.38,10.1-10.32,80.75-82.33,96.6-93.34,17.08-11.86,145.95-60.38,170.79-95.27,0,0,3.64,23.41-2.58,46.5-6.21,23.08-23.21,37.9-23.21,37.9,16.03-4.53,27.84-8.36,45.97-18.52,0,0-1.58,8.25-3.75,17,61.19-13.76,130.28-44.31,130.28-44.31,0,0,6.17,12.34,0,34.69-4.72,17.1-32.44,54.48-56.94,77.33Zm-33.69,78.37c-15.16,5.59-30.64,10.13-42.89,13.5-25.76,7.08-54.47,12.38-67.5,12.05-2.59,2.66-5.54,5.4-8.91,8.15-12.76,10.43-29.85,16.84-43.39,20.61,8.25,3.38,33.38,9.68,67.51,5.2,42.53-5.58,84.79-36.29,90.37-46.75,2.57-4.81,4-9.3,4.81-12.77Zm6.62-54.83c-4.72.47-10.4.38-15.85.06-14.17,3.72-32.41,7.23-51.62,10.31-5.4,10.53-24.31,34.68-47.78,46.58,7.68-1.82,15.22-3.7,15.22-3.12,0,.54-1.18,4.72-4.8,10.85,9.4-.34,29.41-1.26,44.87-3.32,20.92-2.79,85.06-23.01,100.4-68.33,0,0-26.5,5.58-40.44,6.97Z" style="fill:#807262;"/><path d="m260.75,335.21c-10.34,1.72-19.12-1.1-26.26-5.99-7.91,4.47-27,9.61-40.88.09-16.48-11.3-16.79-21.66-15.88-28.46.91-6.81,13.16-14.18,13.16-30.06s-6.81-18.15-6.81-18.15c0,0,7.26-9.07,14.52,3.18,7.26,12.25-2.72,23.59-5.44,36.75-2.72,13.16-.52,19.64,12.25,25.41,8.43,3.81,14.57,2.56,18.14.95-6.79-8.41-10.77-17.83-11.79-22.73-1.44-6.89,5.44-14.06,4.99-24.04-.45-9.98-6.35-10.89-6.35-10.89,0,0,7.71-2.72,11.8,2.72,4.08,5.44,1.81,16.33,1.81,22.23s5.44,19.96,23.59,30.4c18.15,10.43,38.56-8.62,36.75-19.51-1.19-7.14-10.98-10.77-19.23-13.58-8.09-2.75-14.97-8.23-19.48-15.48-1.63-2.62-2.57-4.51-2.57-4.51l10.89,2.27s2.27,3.18,7.26,7.26c4,3.28,24.5,4.54,33.12,16.33,8.62,11.8-3.63,40.83-33.57,45.82Z" style="fill:#5c0300;"/><path d="m359.6,82.2c-1.77,1.03-3.74,1.98-5.85,2.86,7.24,1.6,15.62,5.04,19.21,12.48,4.57,9.46-.54,19.13-4.55,24.62,2.84,1.92,5.04,4.67,6.04,8.53,3.46,13.36-20.51,25.88-20.51,25.88l-9.67-2.13-9.89-6.93s26.22-3.46,24.24-15.34c-1.98-11.87-49.47-2.97-49.47-2.97,0,0-4.95-1.48-2.47-1.48s15.78-2.39,19.07-8.96c2.79-5.58,7.77,1.48,17.66,0,2.25-.34,4.89-.59,7.69-.63,5.46-2.86,13.69-14.81,2.09-21.58-11.87-6.93-56.89,0-56.89,0-8.41,1.98-23.75,1.98-23.75,1.98,0,0,14.35-2.97,20.78-6.93,6.43-3.96,6.43-7.42,9.4-10.39,2.97-2.97,9.4.49,14.35,1.48,4.95.99,31.66-3.46,40.07-10.88,8.41-7.42,19.79-34.14-9.4-43.04-29.19-8.91-100.43,17.32-125.17,43.04-24.74,25.73-24.24,45.52-24.24,45.52l-15.34-9.89s15.34-26.72,39.08-45.52C292.31,3.05,364.54.57,379.88,28.28c15.34,27.71-2.47,43.54-20.28,53.93Z" style="fill:#5c0300;"/><ellipse cx="235.11" cy="164.28" rx="17.66" ry="14.18" transform="translate(3.26 333.13) rotate(-71.01)" style="fill:#440100;"/><ellipse cx="235.11" cy="164.28" rx="13.68" ry="10.98" transform="translate(3.26 333.13) rotate(-71.01)" style="fill:url(#w);"/><ellipse cx="235.11" cy="164.28" rx="5.64" ry="5.41" transform="translate(3.26 333.13) rotate(-71.01)" style="fill:#440100;"/><ellipse cx="242.58" cy="156.84" rx="9.54" ry="4.77" transform="translate(-10.69 17.92) rotate(-4.14)" style="fill:#fff;"/><path d="m231.16,168.36s-6.26,2.97-5.6,4.61,3.77,5.09,5.02,3.7,2.46-7.14,2.46-7.14l-1.87-1.17Z" style="fill:#f42f14;"/><ellipse cx="173.86" cy="161.92" rx="12.26" ry="9.84" transform="translate(-35.82 273.62) rotate(-71.01)" style="fill:#440100;"/><ellipse cx="173.86" cy="161.92" rx="9.5" ry="7.62" transform="translate(-35.82 273.62) rotate(-71.01)" style="fill:url(#x);"/><ellipse cx="173.86" cy="161.92" rx="3.91" ry="3.76" transform="translate(-35.82 273.62) rotate(-71.01)" style="fill:#440100;"/><ellipse cx="179.04" cy="156.76" rx="6.62" ry="3.31" transform="translate(-10.85 13.33) rotate(-4.14)" style="fill:#fff;"/><path d="m171.11,164.75s-4.35,2.06-3.89,3.2,2.62,3.53,3.48,2.57,1.71-4.96,1.71-4.96l-1.3-.81Z" style="fill:#f42f14;"/><path d="m245.93,130.5s9.67,5.26,9.73,20.6c.05,15.57-11.45,24.61-11.45,24.61l12.59-2.86s2.86-6.87,3.43-18.88c.57-12.02-.57-21.17-.57-21.17l-13.73-2.29Z" style="fill:#440100;"/><path d="m266.1,204.46s.22,11.21-.69,17.54c-.9,6.33-2.64,14.35-6.93,17.32-3.23,2.23-10.77,6.73-10.77,6.73l9.34-1.81,8.74-3.92c.9-1.21-1.21.3-.6-6.03.6-6.33,1.21-10.85,2.41-18.08s1.21-12.36,1.21-12.36l-2.71.6Z" style="fill:#9c9da0;"/><path d="m241.47,217.99s.88,5.05-1.53,11.68c-2.41,6.63-4.73,8.99-5.94,9.89s-5.27,1.97-5.27,1.97l4.82,2.71,5.43.6s-.3-4.22,0-6.03,5.43-18.08,5.43-21.1-2.93.27-2.93.27Z" style="fill:#9c9da0;"/><path d="m214.89,225.16s-1.59,3.87-4.25,6.12c-2.66,2.25-4.71,2.24-4.71,2.24l3.88,2.66,1.23,1.23s.61-1.64,1.84-5.32,3.68-7.16,4.29-9.4-2.29,2.47-2.29,2.47Z" style="fill:#9c9da0;"/><path d="m275.21,202.38s-3.37-.84-4.64.84c-1.27,1.69-3.37,7.17-3.37,7.17,0,0,0-5.91-2.95-7.59-2.95-1.69-6.75,0-6.75,0l5.48-7.17,5.91-.84,3.37.84,2.95,6.75Z" style="fill:#ce2101;"/><path d="m235.14,212.5s5.06,3.37,6.33,5.48,1.27,4.64,1.27,4.64c0,0,3.37-5.48,5.48-10.55,2.11-5.06,9.28-9.28,9.28-9.28,0,0,1.27-2.95-2.11-1.69-3.37,1.27-20.25,11.39-20.25,11.39Z" style="fill:#ce2101;"/><path d="m209.83,218.83s5.06,2.53,5.06,6.33c0,0,3.37-.84,5.48-5.06l3.37-6.75-13.92,5.48Z" style="fill:#ce2101;"/><path d="m212.15,184.05s-14.97-6.28-5.31-29.46c10.96-26.31,47.32-26.08,60.36-12.07,0,0-4.35-16.9-20.76-17.38-16.19-.48-37.66,7.24-44.42,28.01-6.76,20.76-2.9,30.9-2.9,30.9h13.04Z" style="fill:#807262;"/><path d="m198.81,119.8s-10.88-7.42-15.83-7.92-14.84,6.93-16.82,11.87c-1.98,4.95,3.96,6.43,3.96,7.92l-5.94,5.94s-3.46-.99-7.92-5.44c-4.45-4.45-5.44-6.43-3.96-10.88,1.48-4.45,6.43-6.93,12.37-9.4,5.94-2.47,8.41-11.87,12.37-14.35,3.96-2.47,13.85,5.44,16.82,9.4,2.97,3.96,4.95,12.86,4.95,12.86Zm210.09,114.73c-16.36-4.79-27.47-16.77-32.82-24.15.32-3.28.9-11.53-.65-17.36-1.98-7.42-6.93-15.83-6.93-15.83,1.48-.99,6.93,0,6.93,0,0,0-4.15-11.64-13.36-19.79-8.38-7.42-26.22-9.4-26.22-9.4,0,0-5.44-7.42-16.33-15.34-10.88-7.92-42.05-16.33-42.05-16.33-4.45-13.36-17.81-18.31-35.13-15.34-17.32,2.97-29.68,15.83-29.68,15.83l-.49-6.93c-2.97.99-13.36,8.91-11.87,13.36,1.48,4.45-2.97,13.36-2.97,13.36,3.46-1.48,7.42-9.89,7.42-9.89,0-1.98,2.97-4.45,2.97-4.45l1.98,4.95c9.11-11.71,23.35-17.86,32.04-20.7,6.22-2.03,13.02-1.94,19.01.69,11.53,5.07,9.31,14.57,9.31,14.57,7.42,0,23.75,1.48,38.59,13.36,14.84,11.87,22.26,27.21,22.26,27.21,0,0,12.86.49,16.82,2.47,3.96,1.98,5.94,7.92,5.94,7.92l-6.93,1.98s8.91,3.96,13.85,10.39c4.95,6.43,6.43,12.86,6.43,12.86-4.95-2.97-21.77-1.48-21.77-1.48,0,0,5.44,6.93,6.43,12.86.99,5.94.99,13.85.99,13.85-.99-1.48-9.4-4.95-9.4-4.95,0,0,0,9.4-3.46,17.81-3.46,8.41-6.67,11.63-6.67,11.63,0,0,8.15-4.71,11.12-7.18,2.97-2.47,6.43-7.92,6.43-7.92.99,1.48,3.46,3.96,3.46,3.96,0,0,6.43-6.93,8.41-13.36.3-.99.52-1.96.68-2.91,7.04,6.05,20.92,17.18,33.01,22.02,17.02,6.81,36.47,4.86,36.47,4.86,0,0-11.18,5.83-16.05,7.78-4.86,1.94-10.21.97-10.21.97,0,0,3.89,11.67,17.99,7.78,14.1-3.89,21.39-14.59,23.83-18.48s4.38-13.61,4.38-13.61c0,0-23.83,8.75-43.76,2.92Z" style="fill:#807262;"/><path d="m188.31,146.82c-1.98-15.31-21.48-15.41-22.02-15.41h-.01c-15.46,9.67-14.49,33.33-14.49,33.33l9.64,5.78c-.22-.5-6.11-13.76,1.95-26.54,6.88-10.95,22.62-8.29,24.93,2.85Z" style="fill:#440100;"/><path d="m191.39,160.87c-2.42,9.66-14.49,20.76-14.49,20.76l-8.21-6.28s14.97-4.35,19.32-21.25c0,0,.01-.06.04-.17.46-2.6.52-4.9.29-6.93-.01-.06-.02-.12-.02-.19-1.98-15.31-21.48-15.41-22.02-15.41,17.37-7.72,25.1,3.86,25.1,3.86-.07.48-.14,1.04-.19,1.67-.63,7.47.19,23.93.19,23.93Z" style="fill:#807262;"/><path d="m308.79,196.16c-1.36-17.24-29.04-34.93-36.75-34.03-5.1.6-30.7,11.49-49.52,19.34-10.51,1.45-39.67,2.83-71.16-18.88,0,0-34.03-2.27-46.73,5.44-12.7,9.53-20.99,28.58-17.36,49.45,3.63,20.87,20.53,42.41,20.53,42.41,0,0,.05-.2.15-.52h56.91s-25.33-2.27-29.22-2.73-4.55-2.27-7.79-2.27-7.14,0-9.09-2.73c-1-1.41-4.07-1.72-6.82-1.7,1.88-3.5,4.52-7.52,8.11-11.4,4.05-2.11,10.81-4.52,20.42-4.26,16.79.45,49.9,27.22,81.21,33.12,31.3,5.9,52.17,1.81,66.69-16.33,14.52-18.15,21.78-37.66,20.42-54.89Zm-9.53,19.51c-4.08,19.51-19.63,36.1-37.66,39.92-14.97,3.18-34.93,8.17-64.88-7.26-29.94-15.42-44.01-19.05-55.35-21.32-1.38-.28-2.68-.45-3.92-.56,3.97-1.63,8.43-2.87,13.45-3.52,1.8-.23,3.52-.43,5.19-.61,5.76,1.34,13.48,3.49,22.93,6.96,22.23,8.17,38.11,22.23,57.16,21.32,19.05-.91,38.56-9.07,44.01-27.22,5.44-18.15,1.36-30.4-2.72-33.57-4.08-3.18-14.97-3.18-19.05.45-4.08,3.63-16.79,17.69-44.46,20.87-27.67,3.18-57.62-2.72-73.95,4.08s-30.4,24.5-30.4,24.5c0,0-11.34-16.33-10.43-35.84.91-19.51,10.89-27.22,10.89-27.22,0,0,15.15-9.31,36.82-6.39,3.66,2.82,27.09,19.57,63.73,16.12-3.85,1.55-6.72,2.64-7.99,2.98-8.62,2.27-13.94-2.19-15.88.91-2.27,3.63-16.79,6.35-21.32,5.44,0,0,11.8,2.27,38.11-1.36,26.31-3.63,62.61-22.68,71.23-21.32,8.62,1.36,28.58,23.14,24.5,42.65Zm-125.46,5.51c18.12-.36,28.32,1.79,47.43-3.24,25.86-6.81,40.83-18.6,47.18-19.51,6.35-.91,12.25,12.7,9.07,23.14s-15.88,19.96-32.21,21.32c-16.33,1.36-49.45-16.79-59.43-19.05-4.14-.94-8.43-1.88-12.04-2.66Zm-19.72-33.18s-11.34-2.27-12.7-4.54c-1.36-2.27.45-6.35.45-6.35,3.63-.45,6.81.91,7.26,4.08.45,3.18,4.99,6.81,4.99,6.81Z" style="fill:#7c2f09;"/><path d="m396.97,512.25c-1.88-15.85-.25-31.86,5.43-47.18.63-1.71,1.31-3.38,2.03-5.03-1.52,2.93-2.87,5.94-4.02,9.05-5.2,14.05-6.09,28.68-3.44,43.16Z" style="fill:none; stroke:#333; stroke-miterlimit:10;"/><path d="m506.32,455.25l10.57,22.32c-15.19,3.1-27.55,12.07-32.51,25.47-3.84,10.37-2.59,21.61,2.58,31.84l-30.59,8.57c-8.09-15.64-10.13-32.9-4.24-48.8,8.04-21.72,28.94-35.77,54.2-39.39Zm46.44,25.47c10.15,3.76,18.78,9.53,25.38,16.44l6.6-4.02c-6.85-9.92-16.91-19.5-28.47-25.8-19.42-10.59-39.74-12.97-39.74-12.97l7.03,22.23c9.29-.81,19.33.46,29.2,4.12Zm-31.02,83.79c-12.48-4.62-22.67-12.3-29.6-21.38l-27.42,13.23c7.59,9.63,17.65,18.15,29.62,24.71,13.39,6.95,31.05,11.56,52.43,7.22l-3.36-19.46c-7.07-.24-14.41-1.63-21.67-4.32Zm55.08-28.35c-6.85,18.5-31.33,26.49-54.68,17.85-23.35-8.64-36.72-30.65-29.88-49.15,6.85-18.5,31.33-26.49,54.68-17.85,23.35,8.64,36.72,30.65,29.88,49.15Zm-7.12-21.46l-32.36,2.55c-.38-.73-.91-1.41-1.61-1.99,3.25-6.08,9.13-17.26,9.13-18.54,0-1.77-1.48-5.31-1.48-5.31l-11.81,22.15c-.22-.02-.44-.05-.66-.05-3.88-6.27-12.59-20.3-13.5-21.21-1.18-1.18-7.08-.89-7.08-.89l16.38,23.76c-.35.38-.65.81-.84,1.31-.17.46-.22.94-.22,1.42-6.81-.15-21.14-.44-22.7-.21-2.07.3-5.02,4.43-5.02,4.43l28.83-1.16c.55.72,1.26,1.37,2.14,1.87-.96,5.76-3.77,22.92-3.52,24.39.3,1.77,2.66,4.43,2.66,4.43l4.72-27.82c.36,0,.71-.03,1.05-.09,4.07,5.08,18.72,23.26,20.49,23.77,2.07.59,6.49-.3,6.49-.3l-23.59-25.24c6.03-.65,28.11-3.02,29.89-3.17,2.06-.18,2.61-4.08,2.61-4.08Zm-36.93,1.24c-1.89-.7-3.88-.05-4.43,1.45-.55,1.5.53,3.28,2.42,3.98,1.89.7,3.88.05,4.43-1.45.56-1.5-.53-3.28-2.42-3.98Zm-45.61-123.24c3.61,0,6.54-2.93,6.54-6.54s-2.93-6.54-6.54-6.54c2.15,0,3.89,1.74,3.89,3.89s-1.74,3.89-3.89,3.89-3.89-1.74-3.89-3.89,1.74-3.89,3.89-3.89c-3.61,0-6.54,2.93-6.54,6.54s2.93,6.54,6.54,6.54Zm135.9,9.56c3.31,1.29,6.92-.06,8.08-3.01.27-.7.37-1.43.34-2.15-.02.03-.02.07-.04.1-.87,1.79-3.19,2.45-5.19,1.48-2-.97-2.92-3.2-2.05-4.99.62-1.29,2.01-1.98,3.49-1.91-.15-.07-.28-.16-.44-.22-3.31-1.29-6.92.06-8.08,3.01-1.15,2.95.59,6.39,3.9,7.69Zm89.94,137.02c4.5,0,8.15-3.65,8.15-8.15,0-.56-.06-1.1-.16-1.63-.56,2.31-2.63,4.03-5.11,4.03-2.91,0-5.28-2.36-5.28-5.28,0-2.48,1.72-4.55,4.03-5.11-.53-.11-1.07-.16-1.63-.16-4.5,0-8.15,3.65-8.15,8.15s3.65,8.15,8.15,8.15Zm-191.25-110.73c0-2.59-3.46-12.1-3.46-12.1,0,0-8.64,1.73-14.26,1.73s-13.53,10.9-19.27,14.35c-3.31,1.99-11.41,2.14-13.58,2.51-3.27.56-6.92,5.19-13.4,12.1-6.48,6.91-14.69,24.2-14.69,24.2,21.18-38.9,78.66-42.79,78.66-42.79Zm82.62,199.52l-48.34,1.83s-54.09-2.75-88.47-20.17c0,0,37.59,27.96,84.35,32.08l55.83-.65c-.65-1.98-1.23-3.95-1.74-5.94-.63-2.37-1.17-4.76-1.63-7.16Zm186.25-65.09l.72-.55c-.3.19-.55.37-.72.55Zm343.87-78.41s-32.21,8.21-47.28,34.94c-15.07,26.73-19.87,38.37-31.53,46.6-11.64,8.23-37,7.54-40.43,18.5-3.42,10.96,12.31,16.44,17.81,13.72-.55.53-18.03,17.82-32.2,18.49-14.39.68-30.83-7.53-38.37-8.91-7.54-1.37-26.73,4.11-20.55,12.34,6.16,8.23,20.55,8.23,20.55,8.23,0,0-21.93,11.64-34.26,10.96-12.34-.68-37.69-15.76-48.66-16.45-10.96-.68-28.78,2.06-23.98,10.29,4.8,8.21,26.05,9.59,26.05,9.59,0,0-4.8,10.96-18.5,15.07-13.71,4.11-39.07,0-39.07,0,0,0-6.85-10.28-17.82-13.02-5.29-1.32-9.93-1.36-13.32-1.06.44,14.19-1.73,23.85-6.44,24.95-.16.04-.33.05-.49.06v.02s-.14,0-.14,0c-.16.01-.32,0-.48,0l-57.4.02c-3.64-.4-7.18-1.58-10.55-3.42h-164.65c-15.35-1.81-30.89-5.48-46.27-11.17-88.96-32.94-138.48-120.69-110.59-196.02,11.69-31.56,35.12-55.93,64.94-71.18-.02-.31-.02-.63-.02-.96,0-14.55,11.79-26.34,26.33-26.34,9.11,0,17.14,4.62,21.87,11.64,31.09-5.13,65.17-2.22,98.45,10.09.61.22,1.22.45,1.81.68,5.68-5.19,14.63-6.87,23-3.6,9.89,3.86,15.69,13.36,14.34,22.44,41.73,26.85,69.57,67.21,77.14,109.7,9.36,3.38,16.04,12.34,16.04,22.86,0,6.31-2.42,12.05-6.36,16.37h25.19c4.26-1,9.75,5.19,15.14,15.91,4.38-7,12.2-19.78,16.02-27.9,5.48-11.64,41.8-24.67,52.76-26.03,0,0,13.02,6.85,30.16-2.06,17.12-8.91,23.98-24.67,23.98-24.67,0,0,2.05,21.24-6.16,36.32-8.23,15.07-13.71,16.44-13.71,16.44,0,0-24.68,4.8-25.36,12.34-.68,7.53,10.97,6.85,22.62,0,11.66-6.86,27.41-19.87,42.48-26.05,15.07-6.16,21.93-2.05,21.93-2.05,0,0-15.07,12.33-10.28,21.93,4.8,9.59,20.55,2.05,28.78-13.02,8.23-15.09,10.28-24.68,30.15-32.21,19.88-7.54,34.95-5.48,34.95-5.48,0,0-26.73,17.81-19.87,30.83,6.85,13.02,41.11-1.37,52.08-14.39,10.96-13.02,8.91-21.24,8.91-21.24,0,0,21.92-7.54,39.06-9.59,17.14-2.06,32.21,5.48,32.21,5.48Zm-508.85,163.66l-.59.45,32.67-.2c-1.75-4.41-3.25-8.8-4.4-13.25-1.75-6.6-2.83-13.27-3.34-19.95-.23-3.34-.37-6.69-.32-10.03-.02-3.35.14-6.69.31-10.06.28-4.99.82-9.98,1.42-15.16-12.74.58-25.88,1.18-35.93,1.63-1.24,1.97-2.29,4.06-3.16,6.23l34.76-1.53c-.31,2.97-.56,5.9-.72,8.82-.11,2.24-.22,4.47-.27,6.69l-37.23,1.61c-.24,3.83-.08,7.7.39,11.5.55,4.38,1.57,8.69,3.02,12.81l35.5-1.34c.51,2.94,1.16,5.87,1.93,8.79.47,1.81.99,3.62,1.57,5.42l-32.17.38c1.93,2.67,4.13,5.11,6.56,7.21Zm62.23-48.17l-35.19,1.52c-.43,4.45-.31,8.96.23,13.38.48,3.81,1.31,7.56,2.47,11.19l35.38-1.33c-1.41-5.77-2.35-11.91-2.73-18.3-.13-2.18-.18-4.33-.17-6.45Zm-43.54-84.08c0,3.89,3.48,7.06,7.87,7.24.14.02.29.02.44.02,1.78,0,3.43-.5,4.77-1.33,2.13-1.32,3.52-3.48,3.52-5.94,0-3.84-3.37-6.97-7.64-7.26-.21-.01-.42-.02-.65-.02-1.55,0-3.01.37-4.25,1.03-2.42,1.27-4.05,3.59-4.05,6.25Zm4.91,46.98c-.3.82-.65,1.61-.98,2.41l10.16-.41c1.11-6.04,1.95-16.43.52-33.29-.05-.62-.11-1.26-.2-1.88-1.68.65-3.5,1.02-5.43,1.09,1.03,10.81-.22,21.67-4.08,32.07Zm41.16,15.26c-6.24.29-17.39.8-29.84,1.37-1.46,1.97-2.7,4.1-3.73,6.33l32.31-1.42c.35-2.14.77-4.24,1.26-6.28Zm-108.69-166.7c-18.7-7.04-38.44-10.36-57.73-10.36,1.52,3.65,3.69,9.15,5.24,14.28,4.28.6,13.37,2.06,16.3,4.02,3.89,2.59,9.08,3.46,14.69,4.75,5.62,1.3,5.19.86,9.94,3.89,4.75,3.03,16.42,12.1,16.42,12.1,0,0-18.58-6.92-29.82-9.94-6.69-1.8-20.6-1.81-25.24-1.75.09,1.64.11,3.18.07,4.59,14.31.35,29.2,3.1,43.92,8.55,33.81,12.53,59.15,36.4,70.9,63.21,1.48-.57,3.09-.94,4.78-1.08-8.49-18.8-20.76-32.72-21.31-33.34.75.61,17.43,14.49,28.11,34.12,5.92,1.9,10.14,6.9,10.14,12.75,0,2.66-.87,5.13-2.37,7.22,4.64,17.63,4.61,33.97,4.41,39.95l.69-.03s.03-.07.04-.1c21.08-57.92-18.84-126.35-89.18-152.84Zm-59.53,32.58s.93-1.6,1.92-4.02c-35.54,1.05-66.15,18.65-77.02,48.03-13.41,36.24,7.58,78.43,47.82,101.67,2.14.96,4.32,1.86,6.55,2.69,13.23,4.9,26.72,6.84,39.54,6.2,2.08-.62,10.5-3.15,16.03-5.36,6.35-2.54,4.66-6.35,8.04-7.2,3.39-.85,5.08-1.27,11.85-6.35,2.85-2.14,6.16-6.01,9.03-9.77-5.96,5.23-13.78,9.96-23.94,13.83-1.79.68-3.56,1.3-5.31,1.86l-6.91-16.98c18.69-1.26,34.55-10.89,40.34-26.52,4.57-12.35,1.93-25.94-5.95-37.58l8.38-2.6c2.81,3.13,6.04,9,8.11,16.32l7.16-1.19.85,5.93-6.44,2.63c.2,1.39.35,2.82.45,4.26l6.41-1.39s1.77,13.34-.47,26.16c.23-.56.47-1.11.68-1.68,14.27-38.55-10.87-83.39-56.16-100.16-32.05-11.87-65.59-6.47-87.52,11.36,23.11-19.94,59.45-26.23,94.13-13.39,29.97,11.1,51.59,33.84,59.85,59.29,3.89-1.3,11.5-4.01,11.5-4.01l2.12,7.62-11.74,3.26c.43,1.9.78,3.81,1.05,5.73l11.52-1.8s7.64,9.7,6.83,26.31c1.18-6.87,1.24-13.84.29-20.78-2.52-2.41-4.05-5.62-4.05-9.15,0-1.57.3-3.07.87-4.47-9.08-27.39-33.66-52.43-67.57-64.98-13.23-4.9-26.63-7.43-39.51-7.81-.45,2.59-.95,4.04-.95,4.04h-7.78Zm147.15,204.12l-.24.18,31.2-.19c-1.55-2.52-2.99-5.22-4.29-8.1l-33.59.39c2.02,2.87,4.33,5.49,6.92,7.72Zm-243.95-214.18c34.09-39.72,98.56-53.64,160.34-30.38,74.02,27.87,116.81,98.82,97.71,160.28l12.04-.49c.97-2.06,2-4.03,3.12-5.87.96-1.72,2.75-3.66,4.27-5.15.68-3.48,1.19-6.99,1.52-10.5,2.36,1.89,5.34,3.01,8.6,3.01,5.8,0,10.77-3.58,12.82-8.65.65-1.6,1.01-3.35,1.01-5.18,0-2.08-.46-4.04-1.28-5.8-2.19-4.73-6.98-8.01-12.55-8.01-3.23,0-6.21,1.12-8.56,2.98-.24-2.58-.56-5.17-.96-7.75-5.98-37.74-29.84-73.81-66.06-98.36-3.12-2.1-6.32-4.14-9.63-6.08,4.03-.53,7.48-2.93,8.93-6.65.78-2,.88-4.11.4-6.11-.89-3.74-3.78-7.12-7.94-8.75-3.28-1.28-6.71-1.22-9.58-.09-2.73,1.08-4.95,3.12-6.04,5.9-1.08,2.77-.84,5.77.44,8.4-3.43-1.64-6.93-3.17-10.51-4.61-1.52-.61-3.06-1.21-4.61-1.78-28.83-10.67-58.32-13.46-85.42-9.47-4.19.61-8.33,1.38-12.39,2.32.04-.36.05-.72.05-1.09,0-4.91-2.53-9.23-6.36-11.72-2.19-1.42-4.81-2.25-7.6-2.25-5.93,0-10.98,3.69-13.01,8.91-.61,1.58-.94,3.28-.94,5.06,0,3.44,1.26,6.6,3.32,9.02-3.89,1.65-7.69,3.47-11.37,5.44-15.66,8.39-29.24,19.66-39.76,33.42Zm188.76,214.69c-1.8-4.5-3.33-8.98-4.51-13.51-1.75-6.6-2.83-13.27-3.34-19.95-.23-3.34-.37-6.69-.32-10.03-.02-3.35.14-6.69.31-10.06.24-4.35.69-8.7,1.19-13.18-2.04.09-3.8.17-5.23.23-2.39,2.31-4.95,4.45-7.66,6.43l8.59-.37c-.22,2.31-.41,4.6-.53,6.88-.15,2.87-.29,5.73-.3,8.57l-58.68,2.52c-28.87,1.26-57.1-9.47-77.44-29.98-25.68-25.91-36.92-60.25-25.7-90.57,12.05-32.53,46.18-51.88,85.65-52.61.26-1.5.4-3.04.31-4.55-.43-7.35-1.3-9.94-5.19-16.86-2.75-4.89-6.14-8.47-8.35-10.15-40.67,2.69-78.05,20.16-97.85,48.62-2.18,4.17-4.15,8.5-5.82,13.01-24.98,67.49,19.38,146.12,99.1,175.63,14.71,5.45,29.6,8.83,44.26,10.31l61.49-.37Zm157.69,5.12c-5.22-10.12-10.37-24.57-14.21-40.96-4.39-18.75-6.12-35.97-5.26-47.65h-41.56c-4.54,6.32-7.8,14.83-9.23,24.52h37.81l4.65-3.99s1.33,12.29,1.99,13.95h-45.26c-.03,1.98,0,3.99.12,6.03.04.76.1,1.52.16,2.28h43.31l2.66-3.32s4.98,19.59,8.3,28.23c3.32,8.63,5.98,15.28,5.98,15.28h-42.37c3.47,2.91,7.27,4.86,11.25,5.64h41.66Zm337.73-164.1s-7.21.55-14.41,1.67c-7.21,1.11-20.53,6.1-20.53,6.1,0,0-2.21,11.08-11.64,18.85-9.43,7.77-29.96,19.97-43.83,22.75-13.87,2.77-28.28,3.88-31.05-4.45-2.78-8.31,10.54-27.72,10.54-27.72,0,0-8.87.55-17.2,6.65-8.33,6.1-9.43,18.86-25.51,36.06-16.09,17.19-38.27,7.21-39.39-1.67-1.11-8.87,6.1-17.76,6.1-17.76,0,0-8.31-1.67-19.41,5.55-11.1,7.21-16.09,18.3-32.17,27.74-16.09,9.43-34.4-3.33-29.4-14.99,5-11.64,35.5-17.74,35.5-17.74,8.31-7.77,12.76-22.74,12.76-22.74,0,0-8.33,8.87-24.42,14.97-16.08,6.1-26.62,3.89-26.62,3.89-6.1.55-31.07,12.75-36.06,17.19-4.98,4.44-12.2,18.86-12.2,18.86l-10.35,18.31c.79,2.18,1.55,4.43,2.3,6.77-1.81-.71-3.67-1.11-5.51-1.08l-2.81,4.98c-6.81.84-9.13,5.98-9.13,5.98,0,0,6.1-1.67,10.54,0,4.44,1.67,6.1,5,6.1,5,0,0-2.77,6.66-7.77,8.33-4.81,1.59-9.11-1.43-9.42-1.65.24.34,4,5.58,7.75,7.19,3.89,1.67,12.2,0,12.2,0,0,0,1.12,2.77-2.77,7.21-3.72,4.25-8.46,3.42-8.85,3.34.46.2,6.23,2.71,9.95,1.65,1.76-.51,4.19-2.57,6.93-4.71,4.01,3.49,12.65,10.31,19.7,11.37,0,0,17.74,8.87,23.85,9.98,6.1,1.11,21.09,1.67,21.09,1.67,0,0-16.64-8.87-3.89-23.3,12.76-14.41,34.94-13.31,52.7-4.98,17.74,8.31,29.4,6.1,29.4,6.1,0,0-5-11.66,4.98-19.97,9.99-8.33,46.6-3.33,54.36-1.67,7.77,1.67,17.2-2.22,17.2-2.22,0,0-9.43-8.87-5.55-19.97,3.89-11.1,28.29-16.64,42.72-26.07,14.41-9.43,29.84-31.32,36.05-41.04,9.06-14.19,27.18-24.4,27.18-24.4Z" style="fill:#333;"/><path d="m730.42,491.55s8.01-1.6,9.61,1.6c1.6,3.2,4.81,3.2,7.48,3.2s3.2,2.14,6.41,2.67,24.03,3.2,24.03,3.2h-46.99l-.53-10.68Z" style="fill:#fff;"/><path d="m872.81,129.88s13.27-1.6,15.93,1.6c2.65,3.2,7.96,3.2,12.39,3.2s5.31,2.14,10.62,2.67c5.31.53,39.82,3.2,39.82,3.2h-77.87l-.88-10.68Z" style="fill:#fff;"/><path d="m853.97,216.76s9.25-1.2,11.1,1.2c1.85,2.41,4.65,2.41,7.73,2.41s4.61,1.6,8.31,2.01c3.7.4,27.76,2.41,27.76,2.41h-54.28l-.62-8.02Z" style="fill:#fff;"/><path d="m736.29,509.71s8.01-2.67,11.21-1.6c3.2,1.07,8.54,3.2,8.54,3.2h8.01l6.94,2.14,29.9,2.14h-56.06l-8.54-5.87Z" style="fill:#fff;"/><path d="m1013.9,555.21s-13.87,8.33-20.52,14.43c-6.66,6.1-6.1,15.53-9.99,19.41-3.88,3.89-48.81,4.44-57.14,9.43-8.31,5-7.21,16.64-7.21,16.64,0,0-6.66,1.11-11.64,0-5-1.11-23.3-11.64-37.73-9.98-14.41,1.65-29.95,3.88-38.83,10.54-8.87,6.65-3.32,8.87-6.1,12.75-2.77,3.89-17.74,7.22-17.74,7.22-7.05-1.06-15.68-7.88-19.7-11.37,3.34-2.6,7.17-5.27,10.82-5.27,6.65,0,12.75,3.32,12.75,3.32,0,0,9.43-6.1,13.32-12.2,3.88-6.1,18.3-8.87,18.3-8.87-3.33-2.77-12.2-1.67-21.63,5-9.43,6.65-24.96,8.31-31.07,6.1-6.1-2.22-3.88-6.1,2.77-9.99,6.66-3.88,16.09,2.22,16.09,2.22,9.13-5.37,10.98-15.96,11.08-16.6-1.17,3.88-11.12,9.39-23.85,9.39s-13.87-5.55-22.18-5.55c-.7,0-1.35.04-1.96.12l16.38-28.97.72-.55c4.29-2.71,20.06-6.04,23.68-5,3.89,1.11,2.78,11.08,5.55,18.85,2.77,7.77,31.07,10.54,41.04,9.43,9.99-1.11,19.97-12.75,27.18-18.3,7.22-5.54,21.63-5.54,21.63-5.54,0,0-5.54,7.21-7.21,12.2-1.66,5,13.31,7.77,27.18,2.77,13.87-5,30.51-16.09,38.27-21.63,7.77-5.54,16.09-3.88,16.09-3.88,0,0-2.77,8.87,0,10.54,2.77,1.67,11.64-5.55,18.3-6.66,6.66-1.11,13.31,0,13.31,0Z" style="fill:url(#y);"/></svg>